<svg xmlns="http://www.w3.org/2000/svg" version="1.1" xmlns:xlink="http://www.w3.org/1999/xlink" xmlns:svgjs="http://svgjs.dev/svgjs" width="1000" height="1000" viewBox="0 0 1000 1000"><rect width="1000" height="1000" fill="#000000"></rect><g transform="matrix(0.7,0,0,0.7,150.0000000000001,106.25)"><svg viewBox="0 0 320 360" data-background-color="#ffffff" preserveAspectRatio="xMidYMid meet" height="1125" width="1000" xmlns="http://www.w3.org/2000/svg" xmlns:xlink="http://www.w3.org/1999/xlink"><g id="tight-bounds" transform="matrix(1,0,0,1,0,0)"><svg viewBox="0 0 320 360" height="360" width="320"><rect width="320" height="360" fill="#ffffff" mask="url(#b8754a80-a5c1-4b01-8dff-243d937a14ab)" data-fill-palette-color="tertiary"></rect><g><svg></svg></g><g><svg viewBox="0 0 320 360" height="360" width="320"><g><path xmlns="http://www.w3.org/2000/svg" d="M20.961 227.22l3.726 4.658-1.863-6.056c-0.466-2.795-3.726 0.466-1.863 1.398M25.153 224.425c1.397 2.329 2.795 4.658 2.795 6.987 0 3.261 2.795 4.658 5.123 5.589-3.261-3.726-5.124-13.974-7.918-12.576M204.017 26.929c7.918 0 15.371-0.932 23.756 0.931 20.495 5.124 37.729 15.371 49.374 29.811l32.606 52.169c1.397 13.042 4.192 27.482 3.726 43.319 3.261 0 2.795-4.658 6.521-5.59-3.726 9.316-5.59 20.961-6.521 34.469-2.329-7.453 0-18.632 0.466-24.687-3.261 5.124-5.124 1.397-5.124-0.932 0.466-3.726-1.397-3.261-2.795-4.658-5.124-4.658-8.384-9.782-12.11-17.7 2.329-6.055 2.795-14.905-4.658-19.563-2.329-1.397-5.124-3.726-6.521-7.453-1.863-5.124-5.124-11.179-4.193-19.097 0.466-2.329-6.987 5.124-11.179 1.863-18.166-12.576-36.332-27.016-58.224-39.127-11.645 0-20.029-4.192-24.221-9.316-3.726-4.658-0.932-10.713 4.658-11.179 3.261 0 6.987-0.932 9.782 0.932 0.466-1.863 2.329-4.192 4.657-4.192M157.904 16.215l0.932 0.466c4.658 0.932 6.987 7.453 12.11 5.124 0 3.261 0.466 6.521-0.466 8.85-1.397 3.726-5.59 3.726-8.85 3.726-31.208-1.863-49.374 11.179-68.471 22.358-5.124 3.261-10.713 5.59-14.906 9.782-20.029 18.632-41.921 35.866-47.045 70.335l-4.192 38.195c-0.466 4.192-5.124 8.384-4.192 13.508l3.26 22.824c-3.261-3.261-5.124 0.932-4.192 2.795 0.466 1.397 2.329 6.055 5.124 1.863 3.726 6.987 7.453 20.495 12.576 26.55 15.837 18.632 36.332 35.4 53.101 52.169 4.192-0.932 7.453-0.932 8.384-3.727 1.397 2.795-1.397 5.59-3.726 6.056 7.453 4.658 15.837 8.85 27.016 9.781 14.44 0.932 27.948 3.261 40.524 6.522 6.521-1.863 13.042-2.795 20.029-3.261 2.329 0 3.726-3.726 6.521-4.658l0.466-4.658c2.795 4.192 2.329-1.397 0.466-4.192 3.261 2.795 4.192 5.124 5.589 6.987 0-1.397 3.726-6.521 3.727-0.466l0.931-6.055c1.397-0.932 1.863 5.124 3.261 0.931 1.397-4.192 4.192-0.932 6.987-2.329-0.932 1.863-0.466 5.59 2.794 3.261l3.727-3.261c2.329 5.59 6.055 3.261 7.918 2.329 20.495-13.042 40.99-28.413 60.553-43.784l-0.466 6.055 2.329-7.453c2.329 2.329 4.192 0.466 5.124-0.931 2.795-4.658 6.521-9.316 12.577-13.508-7.453 20.029-16.303 35.866-27.482 48.908l-4.658 5.59c0 3.261-0.932 7.453-4.658 7.918-1.863 0.466-5.59-0.932-8.384 1.863-1.397 1.863 3.261 5.59-0.466 2.795-3.261-2.329-6.521 0-10.248 0.932-2.795 0.932 1.863 3.726 2.795 5.589 0.932 1.863 1.863 3.726 1.398 6.056l-5.124-5.59c-6.055 3.261-9.782 9.316-14.906 13.974-2.329 1.863-1.397 5.124-1.397 7.918-3.261 0-6.987-0.932-8.85 0.932-1.397 1.863-0.932 4.658-0.932 7.453-4.658-0.466-5.124-7.453-9.315-6.056-4.192 0.932-8.85 1.397-12.577 3.727 2.795 5.59-4.658 2.329-3.726 3.26-6.987-4.192-13.042-7.453-20.495-4.658-15.837-5.124-35.4-2.795-49.84-0.931 0-2.329 0.466-4.658-0.466-5.124-0.932 2.329-3.726 1.397-3.26 1.397-8.85-6.055-17.7-9.782-27.016-14.905-8.384 0.932-16.303-3.261-18.632-5.59-6.521-6.055-13.974-2.795-20.029-4.192-13.042-3.261-17.7-16.769-19.098-26.084-0.932-4.658-4.658-6.521-6.055-6.056-6.055-19.563-15.371-37.263-22.824-55.429-1.863-4.658-1.397-9.316-1.397-14.44 2.329 0.932 4.658 0.466 4.192-2.794-2.329-15.371-7.918-27.016-13.974-38.195 3.261-15.837 3.726-34.469 11.179-48.443 6.521-12.576 18.632-19.098 27.016-29.811 2.795-3.726 2.795-8.85 5.59-12.11 9.316-9.316 18.632-19.098 28.879-27.482 4.658-3.726 10.247 0 17.234-1.397 2.329-8.384 11.645-15.837 20.495-13.508 3.726 0.932 11.179-8.85 13.508-9.782 3.726-1.397 1.863 3.726 1.863 6.987 8.85-6.987 20.961-10.713 32.14-14.906" fill="#ffffff" fill-rule="nonzero" stroke="none" stroke-width="1" stroke-linecap="butt" stroke-linejoin="miter" stroke-miterlimit="10" stroke-dasharray="" stroke-dashoffset="0" font-family="none" font-weight="none" font-size="none" text-anchor="none" style="mix-blend-mode: normal" data-fill-palette-color="tertiary"></path></g><g transform="matrix(1,0,0,1,64,122.87071330288029)"><svg viewBox="0 0 192 114.25857339423943" height="114.25857339423943" width="192"><g><svg viewBox="0 0 192 114.25857339423943" height="114.25857339423943" width="192"><g><svg viewBox="0 0 192 114.25857339423943" height="114.25857339423943" width="192"><g transform="matrix(1,0,0,1,0,68.2260340069888)"><svg viewBox="0 0 192 46.03253938725064" height="46.03253938725064" width="192"><g id="textblocktransform"><svg viewBox="0 0 192 46.03253938725064" height="46.03253938725064" width="192" id="textblock"><g><svg viewBox="0 0 192 31.58537714021286" height="31.58537714021286" width="192"><g transform="matrix(1,0,0,1,0,0)"><svg width="192" viewBox="2.5999999046325684 -35 216.07998657226562 35.54999923706055" height="31.58537714021286" data-palette-color="url(#3dbeadc1-82bd-423c-9d8c-e81318987caf)"></svg></g></svg></g><g transform="matrix(1,0,0,1,0,36.19444171402128)"><svg viewBox="0 0 192 9.838097673229353" height="9.838097673229353" width="192"><g transform="matrix(1,0,0,1,0,0)"><svg width="192" viewBox="-1.2000000476837158 -38.75 977.6500244140625 50.099998474121094" height="9.838097673229353" data-palette-color="url(#03eb45fd-7d38-4199-a950-371eafd3f87b)"></svg></g></svg></g></svg></g></svg></g><g transform="matrix(1,0,0,1,64.19151528340981,0)"><svg viewBox="0 0 63.61696943318038 63.61696943318038" height="63.61696943318038" width="63.61696943318038"><g><svg xmlns="http://www.w3.org/2000/svg" xmlns:xlink="http://www.w3.org/1999/xlink" version="1.1" x="0" y="0" viewBox="0 0 100 100" style="enable-background:new 0 0 100 100;" xml:space="preserve" height="63.61696943318038" width="63.61696943318038" class="icon-icon-0" data-fill-palette-color="accent" id="icon-0"></svg></g></svg></g><g></g></svg></g></svg></g></svg></g></svg></g><defs></defs><mask id="da7b3b96-2236-41f2-82c4-803df9293cd0"><g id="SvgjsG2178"><svg viewBox="0 0 320 360" height="360" width="320"><g><svg></svg></g><g><svg viewBox="0 0 320 360" height="360" width="320"><g></g><g transform="matrix(1,0,0,1,64,122.87071330288029)"><svg viewBox="0 0 192 114.25857339423943" height="114.25857339423943" width="192"><g><svg viewBox="0 0 192 114.25857339423943" height="114.25857339423943" width="192"><g><svg viewBox="0 0 192 114.25857339423943" height="114.25857339423943" width="192"><g transform="matrix(1,0,0,1,0,68.2260340069888)"><svg viewBox="0 0 192 46.03253938725064" height="46.03253938725064" width="192"><g id="SvgjsG2177"><svg viewBox="0 0 192 46.03253938725064" height="46.03253938725064" width="192" id="SvgjsSvg2176"><g><svg viewBox="0 0 192 31.58537714021286" height="31.58537714021286" width="192"><g transform="matrix(1,0,0,1,0,0)"><svg width="192" viewBox="2.5999999046325684 -35 216.07998657226562 35.54999923706055" height="31.58537714021286" data-palette-color="url(#3dbeadc1-82bd-423c-9d8c-e81318987caf)"><path d="M15.45 0.55L15.45 0.55Q7.95 0.55 5.28-3.6 2.6-7.75 2.6-17.25 2.6-26.75 5.3-30.78 8-34.8 15.45-34.8L15.45-34.8Q19.9-34.8 25.25-33.55L25.25-33.55 25.05-29.05Q20.55-29.85 16.05-29.85 11.55-29.85 9.95-27.18 8.35-24.5 8.35-17.13 8.35-9.75 9.9-7.08 11.45-4.4 15.95-4.4 20.45-4.4 25.05-5.15L25.05-5.15 25.2-0.55Q20.05 0.55 15.45 0.55ZM35.95 0L30.5 0 30.5-25 35.95-25 35.95 0ZM35.95-29.25L30.5-29.25 30.5-35 35.95-35 35.95-29.25ZM48-19.4L48 0 42.55 0 42.55-25 47.95-25 47.95-23.45Q51.6-25.55 54.85-25.55L54.85-25.55Q59.85-25.55 61.67-22.73 63.5-19.9 63.5-13.4L63.5-13.4 63.5 0 58.1 0 58.1-13.25Q58.1-17.3 57.22-19 56.35-20.7 53.65-20.7L53.65-20.7Q51.1-20.7 48.75-19.7L48.75-19.7 48-19.4ZM87.64-4.5L87.64-4.5 89.04-4.65 89.14-0.6Q83.44 0.55 79.04 0.55L79.04 0.55Q73.49 0.55 71.07-2.5 68.64-5.55 68.64-12.25L68.64-12.25Q68.64-25.55 79.49-25.55L79.49-25.55Q89.99-25.55 89.99-14.1L89.99-14.1 89.64-10.2 74.14-10.2Q74.19-7.1 75.49-5.65 76.79-4.2 80.34-4.2 83.89-4.2 87.64-4.5ZM74.09-14.4L84.64-14.4Q84.64-18.1 83.47-19.58 82.29-21.05 79.49-21.05 76.69-21.05 75.42-19.5 74.14-17.95 74.09-14.4L74.09-14.4ZM105.94-29.95L105.94-29.95Q99.59-29.95 99.59-25.5L99.59-25.5Q99.59-23.2 101.09-22.23 102.59-21.25 107.72-19.83 112.84-18.4 114.94-16.43 117.04-14.45 117.04-10.2L117.04-10.2Q117.04-4.8 113.97-2.13 110.89 0.55 105.59 0.55L105.59 0.55Q101.34 0.55 96.19-0.45L96.19-0.45 94.39-0.8 94.94-5.25Q101.69-4.35 105.24-4.35L105.24-4.35Q111.44-4.35 111.44-9.85L111.44-9.85Q111.44-12 110.04-13.03 108.64-14.05 103.74-15.28 98.84-16.5 96.44-18.65 94.04-20.8 94.04-25.45 94.04-30.1 97.07-32.48 100.09-34.85 105.44-34.85L105.44-34.85Q109.29-34.85 114.54-33.95L114.54-33.95 116.29-33.65 115.84-29.15Q108.84-29.95 105.94-29.95ZM140.19-4.5L140.19-4.5 141.59-4.65 141.69-0.6Q135.99 0.55 131.59 0.55L131.59 0.55Q126.04 0.55 123.61-2.5 121.19-5.55 121.19-12.25L121.19-12.25Q121.19-25.55 132.04-25.55L132.04-25.55Q142.54-25.55 142.54-14.1L142.54-14.1 142.19-10.2 126.69-10.2Q126.74-7.1 128.04-5.65 129.34-4.2 132.89-4.2 136.44-4.2 140.19-4.5ZM126.64-14.4L137.19-14.4Q137.19-18.1 136.01-19.58 134.84-21.05 132.04-21.05 129.24-21.05 127.96-19.5 126.69-17.95 126.64-14.4L126.64-14.4ZM153.24-19.4L153.24 0 147.79 0 147.79-25 153.19-25 153.19-23.45Q156.84-25.55 160.09-25.55L160.09-25.55Q165.09-25.55 166.91-22.73 168.74-19.9 168.74-13.4L168.74-13.4 168.74 0 163.34 0 163.34-13.25Q163.34-17.3 162.46-19 161.59-20.7 158.89-20.7L158.89-20.7Q156.34-20.7 153.99-19.7L153.99-19.7 153.24-19.4ZM192.53-24.4L192.43-19.85Q186.53-20.65 183.88-20.65 181.23-20.65 180.21-20.03 179.18-19.4 179.18-18.05 179.18-16.7 180.31-16.15 181.43-15.6 185.61-14.88 189.78-14.15 191.53-12.6 193.28-11.05 193.28-7.1 193.28-3.15 190.76-1.3 188.23 0.55 183.38 0.55L183.38 0.55Q180.33 0.55 175.68-0.3L175.68-0.3 174.13-0.55 174.33-5.1Q180.33-4.3 182.98-4.3 185.63-4.3 186.76-4.95 187.88-5.6 187.88-7.1 187.88-8.6 186.81-9.18 185.73-9.75 181.66-10.43 177.58-11.1 175.68-12.55 173.78-14 173.78-17.85 173.78-21.7 176.41-23.6 179.03-25.5 183.13-25.5L183.13-25.5Q186.33-25.5 190.98-24.7L190.98-24.7 192.53-24.4ZM216.33-4.5L216.33-4.5 217.73-4.65 217.83-0.6Q212.13 0.55 207.73 0.55L207.73 0.55Q202.18 0.55 199.76-2.5 197.33-5.55 197.33-12.25L197.33-12.25Q197.33-25.55 208.18-25.55L208.18-25.55Q218.68-25.55 218.68-14.1L218.68-14.1 218.33-10.2 202.83-10.2Q202.88-7.1 204.18-5.65 205.48-4.2 209.03-4.2 212.58-4.2 216.33-4.5ZM202.78-14.4L213.33-14.4Q213.33-18.1 212.16-19.58 210.98-21.05 208.18-21.05 205.38-21.05 204.11-19.5 202.83-17.95 202.78-14.4L202.78-14.4Z" opacity="1" transform="matrix(1,0,0,1,0,0)" fill="white" class="wordmark-text-0" id="SvgjsPath2175"></path></svg></g></svg></g><g transform="matrix(1,0,0,1,0,36.19444171402128)"><svg viewBox="0 0 192 9.838097673229353" height="9.838097673229353" width="192"><g transform="matrix(1,0,0,1,0,0)"><svg width="192" viewBox="-1.2000000476837158 -38.75 977.6500244140625 50.099998474121094" height="9.838097673229353" data-palette-color="url(#03eb45fd-7d38-4199-a950-371eafd3f87b)"></svg></g></svg></g></svg></g></svg></g><g transform="matrix(1,0,0,1,64.19151528340981,0)"><svg viewBox="0 0 63.61696943318038 63.61696943318038" height="63.61696943318038" width="63.61696943318038"><g><svg xmlns="http://www.w3.org/2000/svg" xmlns:xlink="http://www.w3.org/1999/xlink" version="1.1" x="0" y="0" viewBox="0 0 100 100" style="enable-background:new 0 0 100 100;" xml:space="preserve" height="63.61696943318038" width="63.61696943318038" class="icon-icon-0" data-fill-palette-color="accent" id="SvgjsSvg2173"></svg></g></svg></g><g></g></svg></g></svg></g></svg></g></svg></g><defs><mask></mask></defs></svg></g></mask><linearGradient x1="0" x2="1" y1="0.578" y2="0.595" id="3dbeadc1-82bd-423c-9d8c-e81318987caf"><stop stop-color="#6ee2f5" offset="0"></stop><stop stop-color="#6454f0" offset="1"></stop></linearGradient><rect width="320" height="360" fill="#ffffff" mask="url(#da7b3b96-2236-41f2-82c4-803df9293cd0)" data-fill-palette-color="primary"></rect><mask id="afa4918b-099f-4ce4-9bf7-4b02c9cef17f"><g id="SvgjsG2188"><svg viewBox="0 0 320 360" height="360" width="320"><g><svg></svg></g><g><svg viewBox="0 0 320 360" height="360" width="320"><g></g><g transform="matrix(1,0,0,1,64,122.87071330288029)"><svg viewBox="0 0 192 114.25857339423943" height="114.25857339423943" width="192"><g><svg viewBox="0 0 192 114.25857339423943" height="114.25857339423943" width="192"><g><svg viewBox="0 0 192 114.25857339423943" height="114.25857339423943" width="192"><g transform="matrix(1,0,0,1,0,68.2260340069888)"><svg viewBox="0 0 192 46.03253938725064" height="46.03253938725064" width="192"><g id="SvgjsG2187"><svg viewBox="0 0 192 46.03253938725064" height="46.03253938725064" width="192" id="SvgjsSvg2186"><g><svg viewBox="0 0 192 31.58537714021286" height="31.58537714021286" width="192"><g transform="matrix(1,0,0,1,0,0)"><svg width="192" viewBox="2.5999999046325684 -35 216.07998657226562 35.54999923706055" height="31.58537714021286" data-palette-color="url(#3dbeadc1-82bd-423c-9d8c-e81318987caf)"></svg></g></svg></g><g transform="matrix(1,0,0,1,0,36.19444171402128)"><svg viewBox="0 0 192 9.838097673229353" height="9.838097673229353" width="192"><g transform="matrix(1,0,0,1,0,0)"><svg width="192" viewBox="-1.2000000476837158 -38.75 977.6500244140625 50.099998474121094" height="9.838097673229353" data-palette-color="url(#03eb45fd-7d38-4199-a950-371eafd3f87b)"><path d="M6.05-25.9Q5.05-26.25 4.53-26.98 4-27.7 4-28.7L4-28.7Q4-30.15 5.95-31L5.95-31Q13.1-32.45 20.35-33.05L20.35-33.05Q22.3-32.2 22.3-30.75L22.3-30.75Q22.3-29.85 21.4-29 20.5-28.15 19.35-27.8L19.35-27.8 16.6-27.45Q15.75-23.7 12.7-11.3L12.7-11.3 11.3-5.7 15.15-6.1Q17.1-5.25 17.1-3.8L17.1-3.8Q17.1-2.9 16.2-2.05 15.3-1.2 14.15-0.85L14.15-0.85 12.15-0.6Q4.8 0.2 0.85 1.05L0.85 1.05Q-0.15 0.7-0.68-0.03-1.2-0.75-1.2-1.75L-1.2-1.75Q-1.2-3.2 0.75-4.05L0.75-4.05Q3.25-4.55 4.55-4.75L4.55-4.75 10.05-26.6Q8-26.3 6.05-25.9L6.05-25.9ZM23.95-22.85Q23.8-23 23.8-23.2L23.8-23.2Q23.8-23.7 24.9-24.03 26-24.35 27.95-24.35L27.95-24.35Q29.75-24.35 30.6-23.43 31.45-22.5 31.6-21.2L31.6-21.2 30.7-17.95Q31.75-19.4 33.65-20.73 35.55-22.05 37.5-22.85 39.45-23.65 40.7-23.65L40.7-23.65Q43.35-23.65 44.55-22.68 45.75-21.7 45.75-19.6L45.75-19.6Q42.8-11.9 41.85-3L41.85-3 42.55-0.55Q41.95 0.6 40.87 1.28 39.8 1.95 37.75 1.95L37.75 1.95Q36.55 1.95 36 1.15 35.45 0.35 35.45-0.85L35.45-0.85Q35.45-4.2 36.42-8.22 37.4-12.25 38.7-16.45L38.7-16.45Q39.2-18.05 39.2-18.1L39.2-18.1Q39.2-18.8 38.4-18.8L38.4-18.8Q37.3-18.8 35.07-17.25 32.85-15.7 30.5-12.03 28.15-8.35 26.7-2.4L26.7-2.4Q26.6-2.1 26.45-1.3 26.3-0.5 25.65-0.18 25 0.15 23.55 0.15L23.55 0.15Q21.9 0.15 21.12-0.2 20.35-0.55 20.35-1.7L20.35-1.7Q20.5-2.4 20.8-3.4L20.8-3.4Q23.7-15.05 25.25-21.35L25.25-21.35 23.95-22.85ZM58.25-18.1L55.1-5.5Q55.1-4.35 55.7-3.68 56.3-3 57.4-3L57.4-3Q58.9-3 59.87-3.88 60.85-4.75 61.95-6.35L61.95-6.35Q62.75-7.5 63.25-8 63.75-8.5 64.4-8.5L64.4-8.5Q65.7-8.5 66.25-8.18 66.8-7.85 66.8-6.85L66.8-6.85Q66.8-6.4 66.7-5.78 66.59-5.15 66.45-4.85L66.45-4.85Q65.25-2.3 62.52-0.45 59.8 1.4 56.35 1.4L56.35 1.4Q52.9 1.4 51.15-0.28 49.4-1.95 49.4-5.05L49.4-5.05Q49.4-5.5 49.85-7.4 50.3-9.3 51-11.95L51-11.95 52.4-17.65 49.35-17.4Q48.75-17.4 48.45-17.85 48.15-18.3 48.15-18.95L48.15-18.95Q48.15-20.2 49.05-21.45L49.05-21.45Q49.15-21.6 50.05-21.75 50.95-21.9 52.25-22.05L52.25-22.05 53.6-22.2 55.3-29.5Q55.8-30.8 56.82-31.53 57.85-32.25 58.75-32.25L58.75-32.25Q59.75-32.25 60.45-31.65 61.15-31.05 61.2-30.25L61.2-30.25 59.4-22.75Q61.35-23 63.02-23.18 64.7-23.35 65.65-23.35L65.65-23.35Q67.55-23.35 67.55-21.15L67.55-21.15Q67.55-20.3 66.82-19.63 66.09-18.95 65.25-18.8L65.25-18.8 58.25-18.1ZM78.69 1.05Q73.79 1.05 71.54-0.9 69.29-2.85 69.29-6.1L69.29-6.1Q69.29-10.85 71.67-14.9 74.04-18.95 78.02-21.33 81.99-23.7 86.59-23.7L86.59-23.7Q89.39-23.7 91.29-22.13 93.19-20.55 93.19-17.5L93.19-17.5Q93.19-15.75 92.07-14.63 90.94-13.5 88.84-12.63 86.74-11.75 82.04-10.15L82.04-10.15Q77.79-8.75 75.14-7.8L75.14-7.8Q74.94-7.05 74.94-6.25L74.94-6.25Q74.94-4.85 76.12-4.1 77.29-3.35 79.44-3.35L79.44-3.35Q80.79-3.35 82.54-3.9 84.29-4.45 84.74-5.3L84.74-5.3Q86.44-8.4 87.84-8.4L87.84-8.4Q89.89-8.4 90.62-7.63 91.34-6.85 91.39-5.9L91.39-5.9Q90.79-4.3 89.04-2.68 87.29-1.05 84.59 0 81.89 1.05 78.69 1.05L78.69 1.05ZM76.54-12.4Q81.49-14 84.69-15.38 87.89-16.75 87.89-18.1L87.89-18.1Q87.89-18.7 87.24-19.07 86.59-19.45 85.84-19.45L85.84-19.45Q84.34-19.45 82.42-18.3 80.49-17.15 78.84-15.5 77.19-13.85 76.54-12.4L76.54-12.4ZM109.44-35.85L107.34-27.2Q101.69-3.45 100.69-0.05L100.69-0.05Q100.59 0.25 99.67 0.73 98.74 1.2 98.39 1.2L98.39 1.2Q96.99 1.2 95.69 0.5 94.39-0.2 94.29-1.75L94.29-1.75Q94.34-1.85 94.79-2.8 95.24-3.75 95.69-5.5L95.69-5.5Q96.84-9.8 98.32-15.7 99.79-21.6 100.29-23.6L100.29-23.6 102.64-33.15Q102.59-33.55 102.59-37.3L102.59-37.3Q102.74-37.95 103.72-38.35 104.69-38.75 105.49-38.75L105.49-38.75Q106.74-38.75 108.07-37.9 109.39-37.05 109.44-35.85L109.44-35.85ZM123.69-35.85L121.59-27.2Q115.94-3.45 114.94-0.05L114.94-0.05Q114.84 0.25 113.91 0.73 112.99 1.2 112.64 1.2L112.64 1.2Q111.24 1.2 109.94 0.5 108.64-0.2 108.54-1.75L108.54-1.75Q108.59-1.85 109.04-2.8 109.49-3.75 109.94-5.5L109.94-5.5Q111.09-9.8 112.56-15.7 114.04-21.6 114.54-23.6L114.54-23.6 116.89-33.15Q116.84-33.55 116.84-37.3L116.84-37.3Q116.99-37.95 117.96-38.35 118.94-38.75 119.74-38.75L119.74-38.75Q120.99-38.75 122.31-37.9 123.64-37.05 123.69-35.85L123.69-35.85ZM129.54-29.7Q129.54-31.25 130.51-32.45 131.49-33.65 133.24-33.65L133.24-33.65Q135.09-33.65 136.46-32.5 137.84-31.35 137.84-29.9L137.84-29.9Q137.84-28.45 136.44-27.4 135.04-26.35 133.19-26.35L133.19-26.35Q131.39-26.35 130.46-27.28 129.54-28.2 129.54-29.7L129.54-29.7ZM134.79-20.85Q132.14-10.05 130.74-4.6L130.74-4.6Q130.54-3.8 130.54-2.85L130.54-2.85 130.59-1.45Q130.59-0.6 130.06-0.25 129.54 0.1 127.84 0.15L127.84 0.15Q126.19 0.15 125.34-0.2 124.49-0.55 124.49-1.7L124.49-1.7Q124.49-2.25 125.76-7.55 127.04-12.85 129.24-21.35L129.24-21.35 128.09-22.85Q127.94-23 127.94-23.2L127.94-23.2Q127.94-23.7 129.04-24.03 130.14-24.35 132.09-24.35L132.09-24.35Q133.79-24.35 134.26-23.38 134.74-22.4 134.79-20.85L134.79-20.85ZM143.03 11.35Q140.73 11.35 138.71 10.35 136.68 9.35 135.31 7.78 133.93 6.2 133.33 4.6L133.33 4.6Q133.38 3.7 134.21 2.83 135.03 1.95 137.08 1.95L137.08 1.95Q137.73 1.95 138.21 2.45 138.68 2.95 139.28 4.05L139.28 4.05Q140.08 5.55 140.96 6.38 141.83 7.2 143.38 7.2L143.38 7.2Q145.13 7.2 146.76 5.83 148.38 4.45 149.56 2.1 150.73-0.25 151.18-3.1L151.18-3.1Q150.08-1.6 148.66-0.8 147.23 0 145.98 0L145.98 0Q141.98 0 139.66-1.78 137.33-3.55 137.33-8.1L137.33-8.1Q137.33-12.2 139.61-15.75 141.88-19.3 145.68-21.4 149.48-23.5 153.83-23.5L153.83-23.5Q156.68-23.5 158.06-22.35 159.43-21.2 159.73-19.45L159.73-19.45Q160.58-19.05 160.63-18.65L160.63-18.65Q160.63-18.5 160.43-17.6L160.43-17.6Q159.48-13.5 156.43-1.4L156.43-1.4 155.88 0.8Q154.63 5.65 151.11 8.5 147.58 11.35 143.03 11.35L143.03 11.35ZM154.33-18.35Q153.93-19.05 153.56-19.25 153.18-19.45 152.43-19.45L152.43-19.45Q150.08-19.45 147.88-17.93 145.68-16.4 144.33-13.98 142.98-11.55 142.98-9L142.98-9Q142.98-7.15 143.66-5.8 144.33-4.45 145.83-4.25L145.83-4.25Q147.83-4.6 149.61-6.05 151.38-7.5 152.03-9.8L152.03-9.8 154.33-18.35ZM171.93 1.05Q167.03 1.05 164.78-0.9 162.53-2.85 162.53-6.1L162.53-6.1Q162.53-10.85 164.91-14.9 167.28-18.95 171.26-21.33 175.23-23.7 179.83-23.7L179.83-23.7Q182.63-23.7 184.53-22.13 186.43-20.55 186.43-17.5L186.43-17.5Q186.43-15.75 185.31-14.63 184.18-13.5 182.08-12.63 179.98-11.75 175.28-10.15L175.28-10.15Q171.03-8.75 168.38-7.8L168.38-7.8Q168.18-7.05 168.18-6.25L168.18-6.25Q168.18-4.85 169.36-4.1 170.53-3.35 172.68-3.35L172.68-3.35Q174.03-3.35 175.78-3.9 177.53-4.45 177.98-5.3L177.98-5.3Q179.68-8.4 181.08-8.4L181.08-8.4Q183.13-8.4 183.86-7.63 184.58-6.85 184.63-5.9L184.63-5.9Q184.03-4.3 182.28-2.68 180.53-1.05 177.83 0 175.13 1.05 171.93 1.05L171.93 1.05ZM169.78-12.4Q174.73-14 177.93-15.38 181.13-16.75 181.13-18.1L181.13-18.1Q181.13-18.7 180.48-19.07 179.83-19.45 179.08-19.45L179.08-19.45Q177.58-19.45 175.66-18.3 173.73-17.15 172.08-15.5 170.43-13.85 169.78-12.4L169.78-12.4ZM191.68-22.85Q191.53-23 191.53-23.2L191.53-23.2Q191.53-23.7 192.63-24.03 193.73-24.35 195.68-24.35L195.68-24.35Q197.48-24.35 198.33-23.43 199.18-22.5 199.33-21.2L199.33-21.2 198.43-17.95Q199.48-19.4 201.38-20.73 203.28-22.05 205.23-22.85 207.18-23.65 208.43-23.65L208.43-23.65Q211.08-23.65 212.28-22.68 213.48-21.7 213.48-19.6L213.48-19.6Q210.53-11.9 209.58-3L209.58-3 210.28-0.55Q209.68 0.6 208.6 1.28 207.53 1.95 205.48 1.95L205.48 1.95Q204.28 1.95 203.73 1.15 203.18 0.35 203.18-0.85L203.18-0.85Q203.18-4.2 204.15-8.22 205.13-12.25 206.43-16.45L206.43-16.45Q206.93-18.05 206.93-18.1L206.93-18.1Q206.93-18.8 206.13-18.8L206.13-18.8Q205.03-18.8 202.8-17.25 200.58-15.7 198.23-12.03 195.88-8.35 194.43-2.4L194.43-2.4Q194.33-2.1 194.18-1.3 194.03-0.5 193.38-0.18 192.73 0.15 191.28 0.15L191.28 0.15Q189.63 0.15 188.85-0.2 188.08-0.55 188.08-1.7L188.08-1.7Q188.23-2.4 188.53-3.4L188.53-3.4Q191.43-15.05 192.98-21.35L192.98-21.35 191.68-22.85ZM225.98-18.1L222.83-5.5Q222.83-4.35 223.43-3.68 224.03-3 225.13-3L225.13-3Q226.63-3 227.6-3.88 228.58-4.75 229.68-6.35L229.68-6.35Q230.48-7.5 230.98-8 231.48-8.5 232.13-8.5L232.13-8.5Q233.43-8.5 233.98-8.18 234.53-7.85 234.53-6.85L234.53-6.85Q234.53-6.4 234.43-5.78 234.33-5.15 234.18-4.85L234.18-4.85Q232.98-2.3 230.25-0.45 227.53 1.4 224.08 1.4L224.08 1.4Q220.63 1.4 218.88-0.28 217.13-1.95 217.13-5.05L217.13-5.05Q217.13-5.5 217.58-7.4 218.03-9.3 218.73-11.95L218.73-11.95 220.13-17.65 217.08-17.4Q216.48-17.4 216.18-17.85 215.88-18.3 215.88-18.95L215.88-18.95Q215.88-20.2 216.78-21.45L216.78-21.45Q216.88-21.6 217.78-21.75 218.68-21.9 219.98-22.05L219.98-22.05 221.33-22.2 223.03-29.5Q223.53-30.8 224.55-31.53 225.58-32.25 226.48-32.25L226.48-32.25Q227.48-32.25 228.18-31.65 228.88-31.05 228.93-30.25L228.93-30.25 227.13-22.75Q229.08-23 230.75-23.18 232.43-23.35 233.38-23.35L233.38-23.35Q235.28-23.35 235.28-21.15L235.28-21.15Q235.28-20.3 234.55-19.63 233.83-18.95 232.98-18.8L232.98-18.8 225.98-18.1ZM286.57-33.4Q288.42-33.05 289-32.83 289.57-32.6 289.77-32.15L289.77-32.15Q288.72-28.1 287.02-20.68 285.32-13.25 284.72-10.7L284.72-10.7Q283.62-5.6 282.67-1.65L282.67-1.65Q281.97 1.1 280.47 1.1L280.47 1.1Q275.87 1.1 275.87-1.05L275.87-1.05Q275.87-0.2 278.47-12.35L278.47-12.35 279.37-16.65 269.42-1.25Q268.62-0.25 267.07-0.25L267.07-0.25Q265.77-0.25 264.65-0.9 263.52-1.55 263.67-2.2L263.67-2.2 260.92-18.35 256.82-1.8Q256.47-0.35 255.75 0.15 255.02 0.65 253.02 0.65L253.02 0.65Q251.47 0.65 250.75 0.13 250.02-0.4 250.02-1.65L250.02-1.65Q250.02-2.2 250.17-2.7L250.17-2.7 257.02-29.75Q257.57-31.95 258.2-32.68 258.82-33.4 260.47-33.4L260.47-33.4Q261.82-33.4 262.87-33.1 263.92-32.8 263.97-32.2L263.97-32.2 263.97-32.1 267.97-7.25Q270.12-10.7 275.05-18.65 279.97-26.6 282.77-31.05L282.77-31.05Q283.27-32.3 283.9-32.68 284.52-33.05 285.35-33.2 286.17-33.35 286.57-33.4L286.57-33.4ZM275.87-1.05L275.87-1.05ZM300.72 1.05Q296.32 1.05 293.87-1.95 291.42-4.95 291.42-9.6L291.42-9.6Q291.42-13.5 293.29-16.95 295.17-20.4 298.42-22.5 301.67-24.6 305.57-24.6L305.57-24.6Q309.42-24.6 311.89-22.08 314.37-19.55 314.37-14.65L314.37-14.65Q314.37-11.2 312.47-7.5 310.57-3.8 307.39-1.38 304.22 1.05 300.72 1.05L300.72 1.05ZM301.47-2.95Q303.07-2.95 304.69-4.95 306.32-6.95 307.37-10 308.42-13.05 308.42-15.95L308.42-15.95Q308.42-20.4 304.72-20.4L304.72-20.4Q302.67-20.4 300.97-18.45 299.27-16.5 298.27-13.63 297.27-10.75 297.27-8.25L297.27-8.25Q297.27-6.8 297.92-5.58 298.57-4.35 299.54-3.65 300.52-2.95 301.47-2.95L301.47-2.95ZM322.31 1.05Q320.62 0.7 319.91 0.35 319.21 0 319.01-0.6 318.81-1.2 318.76-2.65L318.76-2.65Q318.62-6.05 318.31-9.4L318.31-9.4Q318.26-10.2 318.01-14.15 317.76-18.1 317.76-21.65L317.76-21.65Q317.76-22.55 318.69-23.15 319.62-23.75 321.01-23.75L321.01-23.75Q323.71-23.75 323.71-21.3L323.71-21.3 323.76-7.6 323.76-4.1Q327.12-10.4 331.34-17.1 335.56-23.8 336.81-23.8L336.81-23.8Q338.41-23.8 339.51-23.18 340.62-22.55 340.66-21.75L340.66-21.75Q340.21-20.9 338.71-18.65L338.71-18.65Q338.12-17.8 336.56-15.35L336.56-15.35 334.81-12.6Q330.62-6.05 328.96-3.63 327.31-1.2 326.16-0.15L326.16-0.15Q325.62 0.35 324.56 0.7 323.51 1.05 322.31 1.05L322.31 1.05ZM345.51-29.7Q345.51-31.25 346.49-32.45 347.46-33.65 349.21-33.65L349.21-33.65Q351.06-33.65 352.44-32.5 353.81-31.35 353.81-29.9L353.81-29.9Q353.81-28.45 352.41-27.4 351.01-26.35 349.16-26.35L349.16-26.35Q347.36-26.35 346.44-27.28 345.51-28.2 345.51-29.7L345.51-29.7ZM350.76-20.85Q348.11-10.05 346.71-4.6L346.71-4.6Q346.51-3.8 346.51-2.85L346.51-2.85 346.56-1.45Q346.56-0.6 346.04-0.25 345.51 0.1 343.81 0.15L343.81 0.15Q342.16 0.15 341.31-0.2 340.46-0.55 340.46-1.7L340.46-1.7Q340.46-2.25 341.74-7.55 343.01-12.85 345.21-21.35L345.21-21.35 344.06-22.85Q343.91-23 343.91-23.2L343.91-23.2Q343.91-23.7 345.01-24.03 346.11-24.35 348.06-24.35L348.06-24.35Q349.76-24.35 350.24-23.38 350.71-22.4 350.76-20.85L350.76-20.85ZM362.66 1.05Q357.76 1.05 355.51-0.9 353.26-2.85 353.26-6.1L353.26-6.1Q353.26-10.85 355.63-14.9 358.01-18.95 361.99-21.33 365.96-23.7 370.56-23.7L370.56-23.7Q373.36-23.7 375.26-22.13 377.16-20.55 377.16-17.5L377.16-17.5Q377.16-15.75 376.04-14.63 374.91-13.5 372.81-12.63 370.71-11.75 366.01-10.15L366.01-10.15Q361.76-8.75 359.11-7.8L359.11-7.8Q358.91-7.05 358.91-6.25L358.91-6.25Q358.91-4.85 360.08-4.1 361.26-3.35 363.41-3.35L363.41-3.35Q364.76-3.35 366.51-3.9 368.26-4.45 368.71-5.3L368.71-5.3Q370.41-8.4 371.81-8.4L371.81-8.4Q373.86-8.4 374.58-7.63 375.31-6.85 375.36-5.9L375.36-5.9Q374.76-4.3 373.01-2.68 371.26-1.05 368.56 0 365.86 1.05 362.66 1.05L362.66 1.05ZM360.51-12.4Q365.46-14 368.66-15.38 371.86-16.75 371.86-18.1L371.86-18.1Q371.86-18.7 371.21-19.07 370.56-19.45 369.81-19.45L369.81-19.45Q368.31-19.45 366.38-18.3 364.46-17.15 362.81-15.5 361.16-13.85 360.51-12.4L360.51-12.4ZM418.25-3.95Q418.86-3.85 419.65-2.85 420.45-1.85 420.45-1L420.45-1Q420.45-0.45 419.61-0.15L419.61-0.15Q419.31-0.05 418.63 0.23 417.95 0.5 417.4 0.6 416.86 0.7 416.15 0.7L416.15 0.7Q415.11 0.7 414.56 0.45L414.56 0.45Q413.15-0.15 410.9-2.35 408.65-4.55 406.56-7.38 404.45-10.2 403.45-12.65L403.45-12.65 403.15-12.65Q401.75-12.65 401.11-12.7L401.11-12.7Q399.61-7.15 398.61-3L398.61-3Q398.2-1.25 397.38-0.3 396.56 0.65 394.7 0.65L394.7 0.65Q393.15 0.65 392.43 0.13 391.7-0.4 391.7-1.65L391.7-1.65Q391.7-2.2 391.86-2.7L391.86-2.7 397.9-26.05Q395.31-25.3 393.95-24L393.95-24Q393.4-24.6 393.08-25.58 392.75-26.55 392.75-27.5L392.75-27.5Q392.75-28.2 393.18-28.63 393.61-29.05 394.36-29.4L394.36-29.4Q394.61-29.55 396.18-30.3 397.75-31.05 399.2-31.45L399.2-31.45Q399.65-32.45 400.58-33.1 401.5-33.75 402.95-33.75L402.95-33.75Q403.81-33.75 404.36-33.43 404.9-33.1 405.11-32.6L405.11-32.6Q406.95-33.2 409.56-33.2L409.56-33.2Q412.75-33.2 415.13-31.93 417.5-30.65 418.75-28.65 420-26.65 420-24.6L420-24.6Q420-20.05 417.08-17.32 414.15-14.6 409.56-13.45L409.56-13.45Q410.61-11.65 412.36-9.4 414.11-7.15 415.68-5.58 417.25-4 417.75-4L417.75-4 418.25-3.95ZM404.56-27.4Q403.11-21.6 402.15-17.35L402.15-17.35Q402.75-17.3 403.86-17.3L403.86-17.3Q406.25-17.3 408.65-18.03 411.06-18.75 412.68-20.2 414.31-21.65 414.31-23.8L414.31-23.8Q414.31-25.75 412.7-26.93 411.11-28.1 408.4-28.1L408.4-28.1Q406.9-28.1 404.56-27.4L404.56-27.4ZM431.7 1.05Q426.8 1.05 424.55-0.9 422.3-2.85 422.3-6.1L422.3-6.1Q422.3-10.85 424.68-14.9 427.05-18.95 431.03-21.33 435-23.7 439.6-23.7L439.6-23.7Q442.4-23.7 444.3-22.13 446.2-20.55 446.2-17.5L446.2-17.5Q446.2-15.75 445.08-14.63 443.95-13.5 441.85-12.63 439.75-11.75 435.05-10.15L435.05-10.15Q430.8-8.75 428.15-7.8L428.15-7.8Q427.95-7.05 427.95-6.25L427.95-6.25Q427.95-4.85 429.13-4.1 430.3-3.35 432.45-3.35L432.45-3.35Q433.8-3.35 435.55-3.9 437.3-4.45 437.75-5.3L437.75-5.3Q439.45-8.4 440.85-8.4L440.85-8.4Q442.9-8.4 443.63-7.63 444.35-6.85 444.4-5.9L444.4-5.9Q443.8-4.3 442.05-2.68 440.3-1.05 437.6 0 434.9 1.05 431.7 1.05L431.7 1.05ZM429.55-12.4Q434.5-14 437.7-15.38 440.9-16.75 440.9-18.1L440.9-18.1Q440.9-18.7 440.25-19.07 439.6-19.45 438.85-19.45L438.85-19.45Q437.35-19.45 435.43-18.3 433.5-17.15 431.85-15.5 430.2-13.85 429.55-12.4L429.55-12.4ZM470.1-5.9Q469.5-4.3 467.75-2.68 466-1.05 463.3 0 460.6 1.05 457.4 1.05L457.4 1.05Q452.5 1.05 450.15-0.98 447.8-3 447.8-6.25L447.8-6.25Q447.8-10.95 450.2-14.98 452.6-19 456.65-21.35 460.7-23.7 465.3-23.7L465.3-23.7Q468.15-23.7 470.03-22.03 471.9-20.35 471.9-17.5L471.9-17.5Q471.9-16.4 471-15.68 470.1-14.95 468.6-14.95L468.6-14.95Q467.4-14.95 466.98-15.5 466.55-16.05 466.55-16.95L466.55-16.95 466.6-18.1Q466.6-18.7 465.95-19.07 465.3-19.45 464.55-19.45L464.55-19.45Q463-19.45 460.38-17.6 457.75-15.75 455.78-12.73 453.8-9.7 453.8-6.25L453.8-6.25Q453.8-4.85 454.9-4.1 456-3.35 458.15-3.35L458.15-3.35Q459.5-3.35 461.25-3.9 463-4.45 463.45-5.3L463.45-5.3Q465.15-8.4 466.55-8.4L466.55-8.4Q468.6-8.4 469.32-7.63 470.05-6.85 470.1-5.9L470.1-5.9ZM482.85 1.05Q478.45 1.05 476-1.95 473.55-4.95 473.55-9.6L473.55-9.6Q473.55-13.5 475.42-16.95 477.3-20.4 480.55-22.5 483.8-24.6 487.7-24.6L487.7-24.6Q491.55-24.6 494.02-22.08 496.5-19.55 496.5-14.65L496.5-14.65Q496.5-11.2 494.6-7.5 492.7-3.8 489.52-1.38 486.35 1.05 482.85 1.05L482.85 1.05ZM483.6-2.95Q485.2-2.95 486.82-4.95 488.45-6.95 489.5-10 490.55-13.05 490.55-15.95L490.55-15.95Q490.55-20.4 486.85-20.4L486.85-20.4Q484.8-20.4 483.1-18.45 481.4-16.5 480.4-13.63 479.4-10.75 479.4-8.25L479.4-8.25Q479.4-6.8 480.05-5.58 480.7-4.35 481.67-3.65 482.65-2.95 483.6-2.95L483.6-2.95ZM501.44-22.85Q501.29-23 501.29-23.2L501.29-23.2Q501.29-23.7 502.39-24.03 503.5-24.35 505.44-24.35L505.44-24.35Q507.19-24.35 507.79-23.38 508.39-22.4 508.54-20.85L508.54-20.85Q508.44-20.45 508.34-19.75L508.34-19.75 508.09-18.55Q509.54-20.25 512.39-21.88 515.25-23.5 516.85-23.5L516.85-23.5Q519.35-23.5 520.32-22.63 521.29-21.75 521.44-19.3L521.44-19.3Q523.29-21.05 525.69-22.28 528.1-23.5 529.89-23.5L529.89-23.5Q531.79-23.5 533.39-22.73 535-21.95 535-20.25L535-20.25Q535-19.8 534.94-19.55L534.94-19.55Q534.79-18.75 534.37-17.32 533.94-15.9 533.75-15.25L533.75-15.25Q532.5-11.2 531.82-8.43 531.14-5.65 531-3L531-3 531.69-0.55Q531.1 0.6 530.02 1.28 528.94 1.95 526.89 1.95L526.89 1.95Q525.69 1.95 525.14 1.15 524.6 0.35 524.6-0.85L524.6-0.85Q524.6-1.1 524.64-1.4 524.69-1.7 524.69-1.95L524.69-1.95Q524.79-4.75 525.52-7.63 526.25-10.5 527.39-14.1L527.39-14.1Q528.44-17.25 528.44-17.95L528.44-17.95Q528.44-18.25 528.37-18.57 528.29-18.9 528.19-18.9L528.19-18.9Q527.04-18.9 524.42-17.8 521.79-16.7 520.89-15.6L520.89-15.6Q519.94-12.55 517.75-2.9L517.75-2.9 517.44-1.5Q517.19-0.2 516.97 0.3 516.75 0.8 516.1 1.05 515.44 1.3 514 1.3L514 1.3Q510.54 1.3 510.54-0.1L510.54-0.1Q510.94-1.2 512.75-8.55L512.75-8.55Q513.85-13.1 515.25-18.6L515.25-18.6Q514.94-18.45 514.14-18.15L514.14-18.15Q511.75-17.2 509.97-16.2 508.19-15.2 507.09-13.85L507.09-13.85 505.79-8.55Q505.5-7.35 505.25-6.33 505-5.3 504.79-4.6L504.79-4.6Q504.54-3.75 504.44-2.3L504.44-2.3Q504.34-1.3 504.17-0.85 504-0.4 503.32-0.13 502.64 0.15 501.19 0.15L501.19 0.15Q499.54 0.15 498.69-0.2 497.84-0.55 497.84-1.7L497.84-1.7Q497.84-2.25 499.12-7.55 500.39-12.85 502.59-21.35L502.59-21.35 501.44-22.85ZM539.84-22.85Q539.69-23 539.69-23.2L539.69-23.2Q539.69-23.7 540.79-24.03 541.89-24.35 543.84-24.35L543.84-24.35Q545.59-24.35 546.19-23.38 546.79-22.4 546.94-20.85L546.94-20.85Q546.84-20.45 546.74-19.75L546.74-19.75 546.49-18.55Q547.94-20.25 550.79-21.88 553.64-23.5 555.24-23.5L555.24-23.5Q557.74-23.5 558.72-22.63 559.69-21.75 559.84-19.3L559.84-19.3Q561.69-21.05 564.09-22.28 566.49-23.5 568.29-23.5L568.29-23.5Q570.19-23.5 571.79-22.73 573.39-21.95 573.39-20.25L573.39-20.25Q573.39-19.8 573.34-19.55L573.34-19.55Q573.19-18.75 572.77-17.32 572.34-15.9 572.14-15.25L572.14-15.25Q570.89-11.2 570.22-8.43 569.54-5.65 569.39-3L569.39-3 570.09-0.55Q569.49 0.6 568.42 1.28 567.34 1.95 565.29 1.95L565.29 1.95Q564.09 1.95 563.54 1.15 562.99 0.35 562.99-0.85L562.99-0.85Q562.99-1.1 563.04-1.4 563.09-1.7 563.09-1.95L563.09-1.95Q563.19-4.75 563.92-7.63 564.64-10.5 565.79-14.1L565.79-14.1Q566.84-17.25 566.84-17.95L566.84-17.95Q566.84-18.25 566.77-18.57 566.69-18.9 566.59-18.9L566.59-18.9Q565.44-18.9 562.82-17.8 560.19-16.7 559.29-15.6L559.29-15.6Q558.34-12.55 556.14-2.9L556.14-2.9 555.84-1.5Q555.59-0.2 555.37 0.3 555.14 0.8 554.49 1.05 553.84 1.3 552.39 1.3L552.39 1.3Q548.94 1.3 548.94-0.1L548.94-0.1Q549.34-1.2 551.14-8.55L551.14-8.55Q552.24-13.1 553.64-18.6L553.64-18.6Q553.34-18.45 552.54-18.15L552.54-18.15Q550.14-17.2 548.37-16.2 546.59-15.2 545.49-13.85L545.49-13.85 544.19-8.55Q543.89-7.35 543.64-6.33 543.39-5.3 543.19-4.6L543.19-4.6Q542.94-3.75 542.84-2.3L542.84-2.3Q542.74-1.3 542.57-0.85 542.39-0.4 541.72-0.13 541.04 0.15 539.59 0.15L539.59 0.15Q537.94 0.15 537.09-0.2 536.24-0.55 536.24-1.7L536.24-1.7Q536.24-2.25 537.52-7.55 538.79-12.85 540.99-21.35L540.99-21.35 539.84-22.85ZM584.54 1.05Q579.64 1.05 577.39-0.9 575.14-2.85 575.14-6.1L575.14-6.1Q575.14-10.85 577.51-14.9 579.89-18.95 583.86-21.33 587.84-23.7 592.44-23.7L592.44-23.7Q595.24-23.7 597.14-22.13 599.04-20.55 599.04-17.5L599.04-17.5Q599.04-15.75 597.91-14.63 596.79-13.5 594.69-12.63 592.59-11.75 587.89-10.15L587.89-10.15Q583.64-8.75 580.99-7.8L580.99-7.8Q580.79-7.05 580.79-6.25L580.79-6.25Q580.79-4.85 581.96-4.1 583.14-3.35 585.29-3.35L585.29-3.35Q586.64-3.35 588.39-3.9 590.14-4.45 590.59-5.3L590.59-5.3Q592.29-8.4 593.69-8.4L593.69-8.4Q595.74-8.4 596.46-7.63 597.19-6.85 597.24-5.9L597.24-5.9Q596.64-4.3 594.89-2.68 593.14-1.05 590.44 0 587.74 1.05 584.54 1.05L584.54 1.05ZM582.39-12.4Q587.34-14 590.54-15.38 593.74-16.75 593.74-18.1L593.74-18.1Q593.74-18.7 593.09-19.07 592.44-19.45 591.69-19.45L591.69-19.45Q590.19-19.45 588.26-18.3 586.34-17.15 584.69-15.5 583.04-13.85 582.39-12.4L582.39-12.4ZM604.29-22.85Q604.14-23 604.14-23.2L604.14-23.2Q604.14-23.7 605.24-24.03 606.34-24.35 608.29-24.35L608.29-24.35Q610.09-24.35 610.94-23.43 611.79-22.5 611.94-21.2L611.94-21.2 611.04-17.95Q612.09-19.4 613.99-20.73 615.89-22.05 617.84-22.85 619.79-23.65 621.04-23.65L621.04-23.65Q623.69-23.65 624.89-22.68 626.09-21.7 626.09-19.6L626.09-19.6Q623.14-11.9 622.19-3L622.19-3 622.89-0.55Q622.29 0.6 621.21 1.28 620.14 1.95 618.09 1.95L618.09 1.95Q616.89 1.95 616.34 1.15 615.79 0.35 615.79-0.85L615.79-0.85Q615.79-4.2 616.76-8.22 617.74-12.25 619.04-16.45L619.04-16.45Q619.54-18.05 619.54-18.1L619.54-18.1Q619.54-18.8 618.74-18.8L618.74-18.8Q617.64-18.8 615.41-17.25 613.19-15.7 610.84-12.03 608.49-8.35 607.04-2.4L607.04-2.4Q606.94-2.1 606.79-1.3 606.64-0.5 605.99-0.18 605.34 0.15 603.89 0.15L603.89 0.15Q602.24 0.15 601.46-0.2 600.69-0.55 600.69-1.7L600.69-1.7Q600.84-2.4 601.14-3.4L601.14-3.4Q604.04-15.05 605.59-21.35L605.59-21.35 604.29-22.85ZM650.18-37.05Q650.38-37.8 651.36-38.27 652.33-38.75 653.43-38.75L653.43-38.75Q654.33-38.75 655.38-38.35 656.43-37.95 656.43-37.2L656.43-37.2 653.28-24.9Q649.13-8.75 648.43-5.2L648.43-5.2Q648.13-3.7 648.13-2.9L648.13-2.9Q648.13-1.55 648.43-0.25L648.43-0.25Q648.33 0.05 647.66 0.35 646.98 0.65 646.43 0.65L646.43 0.65Q645.43 0.65 644.23 0.4 643.03 0.15 642.73-0.15L642.73-0.15Q642.28-0.55 642.28-1.75L642.28-1.75Q642.28-2.65 642.48-3.45L642.48-3.45Q641.43-1.95 639.31-0.98 637.18 0 635.88 0L635.88 0Q628.23 0 628.23-8.25L628.23-8.25Q628.23-11.85 629.86-15.45 631.48-19.05 634.51-21.4 637.53-23.75 641.53-23.75L641.53-23.75Q642.63-23.75 643.98-22.88 645.33-22 646.18-20.9L646.18-20.9Q647.28-25.55 648.13-28.65L648.13-28.65Q648.53-30.3 649.06-32.43 649.58-34.55 650.18-37.05L650.18-37.05ZM645.08-16.25Q644.78-17.35 643.66-18.28 642.53-19.2 641.83-19.2L641.83-19.2Q639.53-19.2 637.53-17.7 635.53-16.2 634.36-13.8 633.18-11.4 633.18-8.85L633.18-8.85Q633.18-6.95 633.88-5.45 634.58-3.95 636.03-3.95L636.03-3.95Q637.28-3.95 638.96-4.78 640.63-5.6 641.93-6.93 643.23-8.25 643.53-9.65L643.53-9.65 645.08-16.25ZM673.53-2.6Q673.63-1.3 673.88-0.25L673.88-0.25Q673.78 0.05 673.01 0.35 672.23 0.65 671.68 0.65L671.68 0.65Q669.88 0.65 669.11 0.13 668.33-0.4 668.33-1.45L668.33-1.45Q668.33-2.45 668.53-3.45L668.53-3.45Q667.43-1.95 665.31-0.98 663.18 0 661.88 0L661.88 0Q658.53 0 656.31-1.95 654.08-3.9 654.08-8.2L654.08-8.2Q654.08-12.25 656.01-15.83 657.93-19.4 661.33-21.58 664.73-23.75 668.88-23.75L668.88-23.75Q669.68-23.75 670.98-23.33 672.28-22.9 673.61-21.88 674.93-20.85 675.83-19.25L675.83-19.25Q676.23-19.25 676.78-18.85 677.33-18.45 677.33-18.05L677.33-18.05Q677.33-17.6 677.18-17.15L677.18-17.15 673.53-2.6ZM671.28-16.6Q670.98-17.7 670.11-18.45 669.23-19.2 668.53-19.2L668.53-19.2Q666.23-19.2 664.21-17.57 662.18-15.95 660.93-13.55 659.68-11.15 659.68-9L659.68-9Q659.68-6.9 660.18-5.55 660.68-4.2 662.13-4.2L662.13-4.2Q663.38-4.2 665.01-4.95 666.63-5.7 667.91-6.98 669.18-8.25 669.58-9.65L669.58-9.65 671.28-16.6ZM690.03-18.1L686.88-5.5Q686.88-4.35 687.48-3.68 688.08-3 689.18-3L689.18-3Q690.68-3 691.65-3.88 692.63-4.75 693.73-6.35L693.73-6.35Q694.53-7.5 695.03-8 695.53-8.5 696.18-8.5L696.18-8.5Q697.48-8.5 698.03-8.18 698.58-7.85 698.58-6.85L698.58-6.85Q698.58-6.4 698.48-5.78 698.38-5.15 698.23-4.85L698.23-4.85Q697.03-2.3 694.3-0.45 691.58 1.4 688.13 1.4L688.13 1.4Q684.68 1.4 682.93-0.28 681.18-1.95 681.18-5.05L681.18-5.05Q681.18-5.5 681.63-7.4 682.08-9.3 682.78-11.95L682.78-11.95 684.18-17.65 681.13-17.4Q680.53-17.4 680.23-17.85 679.93-18.3 679.93-18.95L679.93-18.95Q679.93-20.2 680.83-21.45L680.83-21.45Q680.93-21.6 681.83-21.75 682.73-21.9 684.03-22.05L684.03-22.05 685.38-22.2 687.08-29.5Q687.58-30.8 688.6-31.53 689.63-32.25 690.53-32.25L690.53-32.25Q691.53-32.25 692.23-31.65 692.93-31.05 692.98-30.25L692.98-30.25 691.18-22.75Q693.13-23 694.8-23.18 696.48-23.35 697.43-23.35L697.43-23.35Q699.33-23.35 699.33-21.15L699.33-21.15Q699.33-20.3 698.6-19.63 697.88-18.95 697.03-18.8L697.03-18.8 690.03-18.1ZM707.13-29.7Q707.13-31.25 708.1-32.45 709.08-33.65 710.83-33.65L710.83-33.65Q712.68-33.65 714.05-32.5 715.43-31.35 715.43-29.9L715.43-29.9Q715.43-28.45 714.03-27.4 712.63-26.35 710.78-26.35L710.78-26.35Q708.98-26.35 708.05-27.28 707.13-28.2 707.13-29.7L707.13-29.7ZM712.38-20.85Q709.73-10.05 708.33-4.6L708.33-4.6Q708.13-3.8 708.13-2.85L708.13-2.85 708.18-1.45Q708.18-0.6 707.65-0.25 707.13 0.1 705.43 0.15L705.43 0.15Q703.78 0.15 702.93-0.2 702.08-0.55 702.08-1.7L702.08-1.7Q702.08-2.25 703.35-7.55 704.63-12.85 706.83-21.35L706.83-21.35 705.68-22.85Q705.53-23 705.53-23.2L705.53-23.2Q705.53-23.7 706.63-24.03 707.73-24.35 709.68-24.35L709.68-24.35Q711.38-24.35 711.85-23.38 712.33-22.4 712.38-20.85L712.38-20.85ZM724.77 1.05Q720.37 1.05 717.92-1.95 715.47-4.95 715.47-9.6L715.47-9.6Q715.47-13.5 717.35-16.95 719.22-20.4 722.47-22.5 725.72-24.6 729.62-24.6L729.62-24.6Q733.47-24.6 735.95-22.08 738.42-19.55 738.42-14.65L738.42-14.65Q738.42-11.2 736.52-7.5 734.62-3.8 731.45-1.38 728.27 1.05 724.77 1.05L724.77 1.05ZM725.52-2.95Q727.12-2.95 728.75-4.95 730.37-6.95 731.42-10 732.47-13.05 732.47-15.95L732.47-15.95Q732.47-20.4 728.77-20.4L728.77-20.4Q726.72-20.4 725.02-18.45 723.32-16.5 722.32-13.63 721.32-10.75 721.32-8.25L721.32-8.25Q721.32-6.8 721.97-5.58 722.62-4.35 723.6-3.65 724.57-2.95 725.52-2.95L725.52-2.95ZM743.72-22.85Q743.57-23 743.57-23.2L743.57-23.2Q743.57-23.7 744.67-24.03 745.77-24.35 747.72-24.35L747.72-24.35Q749.52-24.35 750.37-23.43 751.22-22.5 751.37-21.2L751.37-21.2 750.47-17.95Q751.52-19.4 753.42-20.73 755.32-22.05 757.27-22.85 759.22-23.65 760.47-23.65L760.47-23.65Q763.12-23.65 764.32-22.68 765.52-21.7 765.52-19.6L765.52-19.6Q762.57-11.9 761.62-3L761.62-3 762.32-0.55Q761.72 0.6 760.65 1.28 759.57 1.95 757.52 1.95L757.52 1.95Q756.32 1.95 755.77 1.15 755.22 0.35 755.22-0.85L755.22-0.85Q755.22-4.2 756.2-8.22 757.17-12.25 758.47-16.45L758.47-16.45Q758.97-18.05 758.97-18.1L758.97-18.1Q758.97-18.8 758.17-18.8L758.17-18.8Q757.07-18.8 754.85-17.25 752.62-15.7 750.27-12.03 747.92-8.35 746.47-2.4L746.47-2.4Q746.37-2.1 746.22-1.3 746.07-0.5 745.42-0.18 744.77 0.15 743.32 0.15L743.32 0.15Q741.67 0.15 740.9-0.2 740.12-0.55 740.12-1.7L740.12-1.7Q740.27-2.4 740.57-3.4L740.57-3.4Q743.47-15.05 745.02-21.35L745.02-21.35 743.72-22.85ZM782.02-27.5Q782.02-28.2 782.44-28.63 782.87-29.05 783.62-29.4L783.62-29.4Q783.87-29.55 785.44-30.3 787.02-31.05 788.47-31.45L788.47-31.45Q788.92-32.45 789.84-33.1 790.77-33.75 792.22-33.75L792.22-33.75Q793.07-33.75 793.62-33.43 794.17-33.1 794.37-32.6L794.37-32.6Q796.22-33.2 798.82-33.2L798.82-33.2Q802.07-33.2 804.44-31.83 806.82-30.45 808.04-28.05 809.27-25.65 809.27-22.65L809.27-22.65Q809.27-22.05 809.12-21L809.12-21Q807.07-9.3 791.62-9.3L791.62-9.3Q790.22-9.3 789.57-9.35L789.57-9.35 788.92-6.95Q787.87-3.1 787.87-3L787.87-3Q787.47-1.25 786.64-0.3 785.82 0.65 783.97 0.65L783.97 0.65Q782.42 0.65 781.69 0.13 780.97-0.4 780.97-1.65L780.97-1.65Q780.97-2.2 781.12-2.7L781.12-2.7 787.17-26.05Q784.57-25.3 783.22-24L783.22-24Q782.67-24.6 782.34-25.58 782.02-26.55 782.02-27.5L782.02-27.5ZM790.62-14Q791.22-13.95 792.32-13.95L792.32-13.95Q797.07-13.95 799.84-15.75 802.62-17.55 803.42-21.3L803.42-21.3Q803.57-22.15 803.57-22.55L803.57-22.55Q803.57-25.35 802.02-26.73 800.47-28.1 797.67-28.1L797.67-28.1Q796.17-28.1 793.82-27.4L793.82-27.4Q791.87-19.65 790.62-14L790.62-14ZM825.01-35.85L822.91-27.2Q817.26-3.45 816.26-0.05L816.26-0.05Q816.16 0.25 815.24 0.73 814.31 1.2 813.96 1.2L813.96 1.2Q812.56 1.2 811.26 0.5 809.96-0.2 809.86-1.75L809.86-1.75Q809.91-1.85 810.36-2.8 810.81-3.75 811.26-5.5L811.26-5.5Q812.41-9.8 813.89-15.7 815.36-21.6 815.86-23.6L815.86-23.6 818.21-33.15Q818.16-33.55 818.16-37.3L818.16-37.3Q818.31-37.95 819.29-38.35 820.26-38.75 821.06-38.75L821.06-38.75Q822.31-38.75 823.64-37.9 824.96-37.05 825.01-35.85L825.01-35.85ZM844.21-2.6Q844.31-1.3 844.56-0.25L844.56-0.25Q844.46 0.05 843.69 0.35 842.91 0.65 842.36 0.65L842.36 0.65Q840.56 0.65 839.79 0.13 839.01-0.4 839.01-1.45L839.01-1.45Q839.01-2.45 839.21-3.45L839.21-3.45Q838.11-1.95 835.99-0.98 833.86 0 832.56 0L832.56 0Q829.21 0 826.99-1.95 824.76-3.9 824.76-8.2L824.76-8.2Q824.76-12.25 826.69-15.83 828.61-19.4 832.01-21.58 835.41-23.75 839.56-23.75L839.56-23.75Q840.36-23.75 841.66-23.33 842.96-22.9 844.29-21.88 845.61-20.85 846.51-19.25L846.51-19.25Q846.91-19.25 847.46-18.85 848.01-18.45 848.01-18.05L848.01-18.05Q848.01-17.6 847.86-17.15L847.86-17.15 844.21-2.6ZM841.96-16.6Q841.66-17.7 840.79-18.45 839.91-19.2 839.21-19.2L839.21-19.2Q836.91-19.2 834.89-17.57 832.86-15.95 831.61-13.55 830.36-11.15 830.36-9L830.36-9Q830.36-6.9 830.86-5.55 831.36-4.2 832.81-4.2L832.81-4.2Q834.06-4.2 835.69-4.95 837.31-5.7 838.59-6.98 839.86-8.25 840.26-9.65L840.26-9.65 841.96-16.6ZM860.71-18.1L857.56-5.5Q857.56-4.35 858.16-3.68 858.76-3 859.86-3L859.86-3Q861.36-3 862.33-3.88 863.31-4.75 864.41-6.35L864.41-6.35Q865.21-7.5 865.71-8 866.21-8.5 866.86-8.5L866.86-8.5Q868.16-8.5 868.71-8.18 869.26-7.85 869.26-6.85L869.26-6.85Q869.26-6.4 869.16-5.78 869.06-5.15 868.91-4.85L868.91-4.85Q867.71-2.3 864.98-0.45 862.26 1.4 858.81 1.4L858.81 1.4Q855.36 1.4 853.61-0.28 851.86-1.95 851.86-5.05L851.86-5.05Q851.86-5.5 852.31-7.4 852.76-9.3 853.46-11.95L853.46-11.95 854.86-17.65 851.81-17.4Q851.21-17.4 850.91-17.85 850.61-18.3 850.61-18.95L850.61-18.95Q850.61-20.2 851.51-21.45L851.51-21.45Q851.61-21.6 852.51-21.75 853.41-21.9 854.71-22.05L854.71-22.05 856.06-22.2 857.76-29.5Q858.26-30.8 859.28-31.53 860.31-32.25 861.21-32.25L861.21-32.25Q862.21-32.25 862.91-31.65 863.61-31.05 863.66-30.25L863.66-30.25 861.86-22.75Q863.81-23 865.48-23.18 867.16-23.35 868.11-23.35L868.11-23.35Q870.01-23.35 870.01-21.15L870.01-21.15Q870.01-20.3 869.28-19.63 868.56-18.95 867.71-18.8L867.71-18.8 860.71-18.1ZM884.56-16.9L880.01 1.7Q879.61 2.5 878.73 3.1 877.86 3.7 876.86 3.7L876.86 3.7Q875.96 3.7 875.03 3.03 874.11 2.35 874.11 1.25L874.11 1.25 874.11 0.95 878.36-16.4 873.71-16Q872.16-16 872.16-17.55L872.16-17.55Q872.16-18.8 873.06-20.05L873.06-20.05Q873.21-20.25 879.61-20.95L879.61-20.95 880.51-25.1Q881.71-30.3 884.33-32.98 886.96-35.65 891.76-35.65L891.76-35.65Q894.06-35.65 895.76-34.65 897.46-33.65 898.31-32.1 899.16-30.55 899.16-28.95L899.16-28.95Q899.16-27.7 898.58-26.95 898.01-26.2 896.21-26.2L896.21-26.2Q895.56-26.2 895.28-26.6 895.01-27 894.71-27.95L894.71-27.95Q894.36-29.2 893.76-29.9 893.16-30.6 891.66-30.6L891.66-30.6Q889.96-30.6 888.78-29.68 887.61-28.75 887.26-27.45L887.26-27.45 885.71-21.55 888.76-21.85Q890.76-22.05 890.91-22.05L890.91-22.05Q892.81-22.05 892.81-19.85L892.81-19.85Q892.81-19 892.08-18.32 891.36-17.65 890.51-17.5L890.51-17.5 884.56-16.9ZM903.8 1.05Q899.4 1.05 896.95-1.95 894.5-4.95 894.5-9.6L894.5-9.6Q894.5-13.5 896.38-16.95 898.25-20.4 901.5-22.5 904.75-24.6 908.65-24.6L908.65-24.6Q912.5-24.6 914.98-22.08 917.45-19.55 917.45-14.65L917.45-14.65Q917.45-11.2 915.55-7.5 913.65-3.8 910.48-1.38 907.3 1.05 903.8 1.05L903.8 1.05ZM904.55-2.95Q906.15-2.95 907.78-4.95 909.4-6.95 910.45-10 911.5-13.05 911.5-15.95L911.5-15.95Q911.5-20.4 907.8-20.4L907.8-20.4Q905.75-20.4 904.05-18.45 902.35-16.5 901.35-13.63 900.35-10.75 900.35-8.25L900.35-8.25Q900.35-6.8 901-5.58 901.65-4.35 902.63-3.65 903.6-2.95 904.55-2.95L904.55-2.95ZM925.4-1.9Q925.35-1.6 925.18-0.73 925 0.15 924.33 0.5 923.65 0.85 922.2 0.85L922.2 0.85Q920.55 0.85 919.8 0.5 919.05 0.15 919.05-1L919.05-1 921.45-10.55Q923.45-18.8 924.1-21.05L924.1-21.05 922.85-22.55Q922.7-22.7 922.7-22.9L922.7-22.9Q922.7-23.4 923.8-23.73 924.9-24.05 926.85-24.05L926.85-24.05Q928.6-24.05 929.2-23.08 929.8-22.1 929.95-20.55L929.95-20.55 929.6-19.25Q931.2-21.2 933.33-22.48 935.45-23.75 937.1-23.75L937.1-23.75Q939.25-23.75 940.45-23 941.65-22.25 941.65-21.05L941.65-21.05Q941.65-20 940.93-18.88 940.2-17.75 939.1-16.98 938-16.2 936.95-16.1L936.95-16.1Q935.95-16.1 935.6-16.35 935.25-16.6 935.25-17.1L935.25-17.1 935.55-18.75Q931.55-17.65 928.3-13.45L928.3-13.45 925.4-1.9ZM942.9-22.85Q942.75-23 942.75-23.2L942.75-23.2Q942.75-23.7 943.85-24.03 944.95-24.35 946.9-24.35L946.9-24.35Q948.65-24.35 949.25-23.38 949.85-22.4 950-20.85L950-20.85Q949.9-20.45 949.8-19.75L949.8-19.75 949.55-18.55Q951-20.25 953.85-21.88 956.7-23.5 958.3-23.5L958.3-23.5Q960.8-23.5 961.77-22.63 962.75-21.75 962.9-19.3L962.9-19.3Q964.75-21.05 967.15-22.28 969.55-23.5 971.35-23.5L971.35-23.5Q973.25-23.5 974.85-22.73 976.45-21.95 976.45-20.25L976.45-20.25Q976.45-19.8 976.4-19.55L976.4-19.55Q976.25-18.75 975.82-17.32 975.4-15.9 975.2-15.25L975.2-15.25Q973.95-11.2 973.27-8.43 972.6-5.65 972.45-3L972.45-3 973.15-0.55Q972.55 0.6 971.47 1.28 970.4 1.95 968.35 1.95L968.35 1.95Q967.15 1.95 966.6 1.15 966.05 0.35 966.05-0.85L966.05-0.85Q966.05-1.1 966.1-1.4 966.15-1.7 966.15-1.95L966.15-1.95Q966.25-4.75 966.97-7.63 967.7-10.5 968.85-14.1L968.85-14.1Q969.9-17.25 969.9-17.95L969.9-17.95Q969.9-18.25 969.82-18.57 969.75-18.9 969.65-18.9L969.65-18.9Q968.5-18.9 965.87-17.8 963.25-16.7 962.35-15.6L962.35-15.6Q961.4-12.55 959.2-2.9L959.2-2.9 958.9-1.5Q958.65-0.2 958.42 0.3 958.2 0.8 957.55 1.05 956.9 1.3 955.45 1.3L955.45 1.3Q952 1.3 952-0.1L952-0.1Q952.4-1.2 954.2-8.55L954.2-8.55Q955.3-13.1 956.7-18.6L956.7-18.6Q956.4-18.45 955.6-18.15L955.6-18.15Q953.2-17.2 951.42-16.2 949.65-15.2 948.55-13.85L948.55-13.85 947.25-8.55Q946.95-7.35 946.7-6.33 946.45-5.3 946.25-4.6L946.25-4.6Q946-3.75 945.9-2.3L945.9-2.3Q945.8-1.3 945.62-0.85 945.45-0.4 944.77-0.13 944.1 0.15 942.65 0.15L942.65 0.15Q941 0.15 940.15-0.2 939.3-0.55 939.3-1.7L939.3-1.7Q939.3-2.25 940.57-7.55 941.85-12.85 944.05-21.35L944.05-21.35 942.9-22.85Z" opacity="1" transform="matrix(1,0,0,1,0,0)" fill="white" class="slogan-text-1" id="SvgjsPath2185"></path></svg></g></svg></g></svg></g></svg></g><g transform="matrix(1,0,0,1,64.19151528340981,0)"><svg viewBox="0 0 63.61696943318038 63.61696943318038" height="63.61696943318038" width="63.61696943318038"><g><svg xmlns="http://www.w3.org/2000/svg" xmlns:xlink="http://www.w3.org/1999/xlink" version="1.1" x="0" y="0" viewBox="0 0 100 100" style="enable-background:new 0 0 100 100;" xml:space="preserve" height="63.61696943318038" width="63.61696943318038" class="icon-icon-0" data-fill-palette-color="accent" id="SvgjsSvg2184"></svg></g></svg></g><g></g></svg></g></svg></g></svg></g></svg></g><defs><mask></mask></defs><mask><g id="SvgjsG2183"><svg viewBox="0 0 320 360" height="360" width="320"><g><svg></svg></g><g><svg viewBox="0 0 320 360" height="360" width="320"><g></g><g transform="matrix(1,0,0,1,64,122.87071330288029)"><svg viewBox="0 0 192 114.25857339423943" height="114.25857339423943" width="192"><g><svg viewBox="0 0 192 114.25857339423943" height="114.25857339423943" width="192"><g><svg viewBox="0 0 192 114.25857339423943" height="114.25857339423943" width="192"><g transform="matrix(1,0,0,1,0,68.2260340069888)"><svg viewBox="0 0 192 46.03253938725064" height="46.03253938725064" width="192"><g id="SvgjsG2182"><svg viewBox="0 0 192 46.03253938725064" height="46.03253938725064" width="192" id="SvgjsSvg2181"><g><svg viewBox="0 0 192 31.58537714021286" height="31.58537714021286" width="192"><g transform="matrix(1,0,0,1,0,0)"><svg width="192" viewBox="2.5999999046325684 -35 216.07998657226562 35.54999923706055" height="31.58537714021286" data-palette-color="url(#3dbeadc1-82bd-423c-9d8c-e81318987caf)"></svg></g></svg></g><g transform="matrix(1,0,0,1,0,36.19444171402128)"><svg viewBox="0 0 192 9.838097673229353" height="9.838097673229353" width="192"><g transform="matrix(1,0,0,1,0,0)"><svg width="192" viewBox="-1.2000000476837158 -38.75 977.6500244140625 50.099998474121094" height="9.838097673229353" data-palette-color="url(#03eb45fd-7d38-4199-a950-371eafd3f87b)"></svg></g></svg></g></svg></g></svg></g><g transform="matrix(1,0,0,1,64.19151528340981,0)"><svg viewBox="0 0 63.61696943318038 63.61696943318038" height="63.61696943318038" width="63.61696943318038"><g><svg xmlns="http://www.w3.org/2000/svg" xmlns:xlink="http://www.w3.org/1999/xlink" version="1.1" x="0" y="0" viewBox="0 0 100 100" style="enable-background:new 0 0 100 100;" xml:space="preserve" height="63.61696943318038" width="63.61696943318038" class="icon-icon-0" data-fill-palette-color="accent" id="SvgjsSvg2179"></svg></g></svg></g><g></g></svg></g></svg></g></svg></g></svg></g><defs><mask></mask></defs></svg></g></mask></svg></g></mask><linearGradient x1="0.054" x2="0.941" y1="0.5" y2="0.5" id="03eb45fd-7d38-4199-a950-371eafd3f87b"><stop stop-color="#0f3054" offset="0"></stop><stop stop-color="#3b8dcb" offset="0.498"></stop><stop stop-color="#0f3054" offset="1"></stop></linearGradient><rect width="320" height="360" fill="#ffffff" mask="url(#afa4918b-099f-4ce4-9bf7-4b02c9cef17f)" data-fill-palette-color="secondary"></rect><mask id="52e1c9ab-4b0c-47b4-8dfb-24f3c82e765f"><g id="SvgjsG2206"><svg viewBox="0 0 320 360" height="360" width="320"><g><svg></svg></g><g><svg viewBox="0 0 320 360" height="360" width="320"><g></g><g transform="matrix(1,0,0,1,64,122.87071330288029)"><svg viewBox="0 0 192 114.25857339423943" height="114.25857339423943" width="192"><g><svg viewBox="0 0 192 114.25857339423943" height="114.25857339423943" width="192"><g><svg viewBox="0 0 192 114.25857339423943" height="114.25857339423943" width="192"><g transform="matrix(1,0,0,1,0,68.2260340069888)"><svg viewBox="0 0 192 46.03253938725064" height="46.03253938725064" width="192"><g id="SvgjsG2205"><svg viewBox="0 0 192 46.03253938725064" height="46.03253938725064" width="192" id="SvgjsSvg2204"><g><svg viewBox="0 0 192 31.58537714021286" height="31.58537714021286" width="192"><g transform="matrix(1,0,0,1,0,0)"><svg width="192" viewBox="2.5999999046325684 -35 216.07998657226562 35.54999923706055" height="31.58537714021286" data-palette-color="url(#3dbeadc1-82bd-423c-9d8c-e81318987caf)"></svg></g></svg></g><g transform="matrix(1,0,0,1,0,36.19444171402128)"><svg viewBox="0 0 192 9.838097673229353" height="9.838097673229353" width="192"><g transform="matrix(1,0,0,1,0,0)"><svg width="192" viewBox="-1.2000000476837158 -38.75 977.6500244140625 50.099998474121094" height="9.838097673229353" data-palette-color="url(#03eb45fd-7d38-4199-a950-371eafd3f87b)"></svg></g></svg></g></svg></g></svg></g><g transform="matrix(1,0,0,1,64.19151528340981,0)"><svg viewBox="0 0 63.61696943318038 63.61696943318038" height="63.61696943318038" width="63.61696943318038"><g><svg xmlns="http://www.w3.org/2000/svg" xmlns:xlink="http://www.w3.org/1999/xlink" version="1.1" x="0" y="0" viewBox="0 0 100 100" style="enable-background:new 0 0 100 100;" xml:space="preserve" height="63.61696943318038" width="63.61696943318038" class="icon-icon-0" data-fill-palette-color="accent" id="SvgjsSvg2203"><path d="M87.427 25H75.086L87.5 12.549 75.232 0H57.837l12.464 12.451L57.531 25H42.773l12.684-12.451L42.92 0H25.244l12.451 12.451L24.927 25H12.402l12.695-12.451L12.549 0H0v100h100V0H87.744L100 12.5 87.427 25zM87.5 87.365h-75v-12.5h75V87.365zM87.5 62.5h-75V50h75V62.5z" fill="white"></path></svg></g></svg></g><g></g></svg></g></svg></g></svg></g></svg></g><defs><mask></mask></defs><mask><g id="SvgjsG2202"><svg viewBox="0 0 320 360" height="360" width="320"><g><svg></svg></g><g><svg viewBox="0 0 320 360" height="360" width="320"><g></g><g transform="matrix(1,0,0,1,64,122.87071330288029)"><svg viewBox="0 0 192 114.25857339423943" height="114.25857339423943" width="192"><g><svg viewBox="0 0 192 114.25857339423943" height="114.25857339423943" width="192"><g><svg viewBox="0 0 192 114.25857339423943" height="114.25857339423943" width="192"><g transform="matrix(1,0,0,1,0,68.2260340069888)"><svg viewBox="0 0 192 46.03253938725064" height="46.03253938725064" width="192"><g id="SvgjsG2201"><svg viewBox="0 0 192 46.03253938725064" height="46.03253938725064" width="192" id="SvgjsSvg2200"><g><svg viewBox="0 0 192 31.58537714021286" height="31.58537714021286" width="192"><g transform="matrix(1,0,0,1,0,0)"><svg width="192" viewBox="2.5999999046325684 -35 216.07998657226562 35.54999923706055" height="31.58537714021286" data-palette-color="url(#3dbeadc1-82bd-423c-9d8c-e81318987caf)"></svg></g></svg></g><g transform="matrix(1,0,0,1,0,36.19444171402128)"><svg viewBox="0 0 192 9.838097673229353" height="9.838097673229353" width="192"><g transform="matrix(1,0,0,1,0,0)"><svg width="192" viewBox="-1.2000000476837158 -38.75 977.6500244140625 50.099998474121094" height="9.838097673229353" data-palette-color="url(#03eb45fd-7d38-4199-a950-371eafd3f87b)"></svg></g></svg></g></svg></g></svg></g><g transform="matrix(1,0,0,1,64.19151528340981,0)"><svg viewBox="0 0 63.61696943318038 63.61696943318038" height="63.61696943318038" width="63.61696943318038"><g><svg xmlns="http://www.w3.org/2000/svg" xmlns:xlink="http://www.w3.org/1999/xlink" version="1.1" x="0" y="0" viewBox="0 0 100 100" style="enable-background:new 0 0 100 100;" xml:space="preserve" height="63.61696943318038" width="63.61696943318038" class="icon-icon-0" data-fill-palette-color="accent" id="SvgjsSvg2198"></svg></g></svg></g><g></g></svg></g></svg></g></svg></g></svg></g><defs><mask></mask></defs></svg></g></mask><mask><g id="SvgjsG2197"><svg viewBox="0 0 320 360" height="360" width="320"><g><svg></svg></g><g><svg viewBox="0 0 320 360" height="360" width="320"><g></g><g transform="matrix(1,0,0,1,64,122.87071330288029)"><svg viewBox="0 0 192 114.25857339423943" height="114.25857339423943" width="192"><g><svg viewBox="0 0 192 114.25857339423943" height="114.25857339423943" width="192"><g><svg viewBox="0 0 192 114.25857339423943" height="114.25857339423943" width="192"><g transform="matrix(1,0,0,1,0,68.2260340069888)"><svg viewBox="0 0 192 46.03253938725064" height="46.03253938725064" width="192"><g id="SvgjsG2196"><svg viewBox="0 0 192 46.03253938725064" height="46.03253938725064" width="192" id="SvgjsSvg2195"><g><svg viewBox="0 0 192 31.58537714021286" height="31.58537714021286" width="192"><g transform="matrix(1,0,0,1,0,0)"><svg width="192" viewBox="2.5999999046325684 -35 216.07998657226562 35.54999923706055" height="31.58537714021286" data-palette-color="url(#3dbeadc1-82bd-423c-9d8c-e81318987caf)"></svg></g></svg></g><g transform="matrix(1,0,0,1,0,36.19444171402128)"><svg viewBox="0 0 192 9.838097673229353" height="9.838097673229353" width="192"><g transform="matrix(1,0,0,1,0,0)"><svg width="192" viewBox="-1.2000000476837158 -38.75 977.6500244140625 50.099998474121094" height="9.838097673229353" data-palette-color="url(#03eb45fd-7d38-4199-a950-371eafd3f87b)"></svg></g></svg></g></svg></g></svg></g><g transform="matrix(1,0,0,1,64.19151528340981,0)"><svg viewBox="0 0 63.61696943318038 63.61696943318038" height="63.61696943318038" width="63.61696943318038"><g><svg xmlns="http://www.w3.org/2000/svg" xmlns:xlink="http://www.w3.org/1999/xlink" version="1.1" x="0" y="0" viewBox="0 0 100 100" style="enable-background:new 0 0 100 100;" xml:space="preserve" height="63.61696943318038" width="63.61696943318038" class="icon-icon-0" data-fill-palette-color="accent" id="SvgjsSvg2193"></svg></g></svg></g><g></g></svg></g></svg></g></svg></g></svg></g><defs><mask></mask></defs><mask><g id="SvgjsG2192"><svg viewBox="0 0 320 360" height="360" width="320"><g><svg></svg></g><g><svg viewBox="0 0 320 360" height="360" width="320"><g></g><g transform="matrix(1,0,0,1,64,122.87071330288029)"><svg viewBox="0 0 192 114.25857339423943" height="114.25857339423943" width="192"><g><svg viewBox="0 0 192 114.25857339423943" height="114.25857339423943" width="192"><g><svg viewBox="0 0 192 114.25857339423943" height="114.25857339423943" width="192"><g transform="matrix(1,0,0,1,0,68.2260340069888)"><svg viewBox="0 0 192 46.03253938725064" height="46.03253938725064" width="192"><g id="SvgjsG2191"><svg viewBox="0 0 192 46.03253938725064" height="46.03253938725064" width="192" id="SvgjsSvg2190"><g><svg viewBox="0 0 192 31.58537714021286" height="31.58537714021286" width="192"><g transform="matrix(1,0,0,1,0,0)"><svg width="192" viewBox="2.5999999046325684 -35 216.07998657226562 35.54999923706055" height="31.58537714021286" data-palette-color="url(#3dbeadc1-82bd-423c-9d8c-e81318987caf)"></svg></g></svg></g><g transform="matrix(1,0,0,1,0,36.19444171402128)"><svg viewBox="0 0 192 9.838097673229353" height="9.838097673229353" width="192"><g transform="matrix(1,0,0,1,0,0)"><svg width="192" viewBox="-1.2000000476837158 -38.75 977.6500244140625 50.099998474121094" height="9.838097673229353" data-palette-color="url(#03eb45fd-7d38-4199-a950-371eafd3f87b)"></svg></g></svg></g></svg></g></svg></g><g transform="matrix(1,0,0,1,64.19151528340981,0)"><svg viewBox="0 0 63.61696943318038 63.61696943318038" height="63.61696943318038" width="63.61696943318038"><g><svg xmlns="http://www.w3.org/2000/svg" xmlns:xlink="http://www.w3.org/1999/xlink" version="1.1" x="0" y="0" viewBox="0 0 100 100" style="enable-background:new 0 0 100 100;" xml:space="preserve" height="63.61696943318038" width="63.61696943318038" class="icon-icon-0" data-fill-palette-color="accent" id="SvgjsSvg2189"></svg></g></svg></g><g></g></svg></g></svg></g></svg></g></svg></g><defs><mask></mask></defs></svg></g></mask></svg></g></mask></svg></g></mask><linearGradient x1="0.054" x2="0.941" y1="0.5" y2="0.5" id="b26a2b29-0a24-4592-8232-5bf53868b9bb"><stop stop-color="#0f3054" offset="0"></stop><stop stop-color="#3b8dcb" offset="0.498"></stop><stop stop-color="#0f3054" offset="1"></stop></linearGradient><rect width="320" height="360" fill="#ffffff" mask="url(#52e1c9ab-4b0c-47b4-8dfb-24f3c82e765f)" data-fill-palette-color="accent"></rect><mask id="b8754a80-a5c1-4b01-8dff-243d937a14ab"><g id="SvgjsG2240"><svg viewBox="0 0 320 360" height="360" width="320"><g><svg></svg></g><g><svg viewBox="0 0 320 360" height="360" width="320"><g><path xmlns="http://www.w3.org/2000/svg" d="M20.961 227.22l3.726 4.658-1.863-6.056c-0.466-2.795-3.726 0.466-1.863 1.398M25.153 224.425c1.397 2.329 2.795 4.658 2.795 6.987 0 3.261 2.795 4.658 5.123 5.589-3.261-3.726-5.124-13.974-7.918-12.576M204.017 26.929c7.918 0 15.371-0.932 23.756 0.931 20.495 5.124 37.729 15.371 49.374 29.811l32.606 52.169c1.397 13.042 4.192 27.482 3.726 43.319 3.261 0 2.795-4.658 6.521-5.59-3.726 9.316-5.59 20.961-6.521 34.469-2.329-7.453 0-18.632 0.466-24.687-3.261 5.124-5.124 1.397-5.124-0.932 0.466-3.726-1.397-3.261-2.795-4.658-5.124-4.658-8.384-9.782-12.11-17.7 2.329-6.055 2.795-14.905-4.658-19.563-2.329-1.397-5.124-3.726-6.521-7.453-1.863-5.124-5.124-11.179-4.193-19.097 0.466-2.329-6.987 5.124-11.179 1.863-18.166-12.576-36.332-27.016-58.224-39.127-11.645 0-20.029-4.192-24.221-9.316-3.726-4.658-0.932-10.713 4.658-11.179 3.261 0 6.987-0.932 9.782 0.932 0.466-1.863 2.329-4.192 4.657-4.192M157.904 16.215l0.932 0.466c4.658 0.932 6.987 7.453 12.11 5.124 0 3.261 0.466 6.521-0.466 8.85-1.397 3.726-5.59 3.726-8.85 3.726-31.208-1.863-49.374 11.179-68.471 22.358-5.124 3.261-10.713 5.59-14.906 9.782-20.029 18.632-41.921 35.866-47.045 70.335l-4.192 38.195c-0.466 4.192-5.124 8.384-4.192 13.508l3.26 22.824c-3.261-3.261-5.124 0.932-4.192 2.795 0.466 1.397 2.329 6.055 5.124 1.863 3.726 6.987 7.453 20.495 12.576 26.55 15.837 18.632 36.332 35.4 53.101 52.169 4.192-0.932 7.453-0.932 8.384-3.727 1.397 2.795-1.397 5.59-3.726 6.056 7.453 4.658 15.837 8.85 27.016 9.781 14.44 0.932 27.948 3.261 40.524 6.522 6.521-1.863 13.042-2.795 20.029-3.261 2.329 0 3.726-3.726 6.521-4.658l0.466-4.658c2.795 4.192 2.329-1.397 0.466-4.192 3.261 2.795 4.192 5.124 5.589 6.987 0-1.397 3.726-6.521 3.727-0.466l0.931-6.055c1.397-0.932 1.863 5.124 3.261 0.931 1.397-4.192 4.192-0.932 6.987-2.329-0.932 1.863-0.466 5.59 2.794 3.261l3.727-3.261c2.329 5.59 6.055 3.261 7.918 2.329 20.495-13.042 40.99-28.413 60.553-43.784l-0.466 6.055 2.329-7.453c2.329 2.329 4.192 0.466 5.124-0.931 2.795-4.658 6.521-9.316 12.577-13.508-7.453 20.029-16.303 35.866-27.482 48.908l-4.658 5.59c0 3.261-0.932 7.453-4.658 7.918-1.863 0.466-5.59-0.932-8.384 1.863-1.397 1.863 3.261 5.59-0.466 2.795-3.261-2.329-6.521 0-10.248 0.932-2.795 0.932 1.863 3.726 2.795 5.589 0.932 1.863 1.863 3.726 1.398 6.056l-5.124-5.59c-6.055 3.261-9.782 9.316-14.906 13.974-2.329 1.863-1.397 5.124-1.397 7.918-3.261 0-6.987-0.932-8.85 0.932-1.397 1.863-0.932 4.658-0.932 7.453-4.658-0.466-5.124-7.453-9.315-6.056-4.192 0.932-8.85 1.397-12.577 3.727 2.795 5.59-4.658 2.329-3.726 3.26-6.987-4.192-13.042-7.453-20.495-4.658-15.837-5.124-35.4-2.795-49.84-0.931 0-2.329 0.466-4.658-0.466-5.124-0.932 2.329-3.726 1.397-3.26 1.397-8.85-6.055-17.7-9.782-27.016-14.905-8.384 0.932-16.303-3.261-18.632-5.59-6.521-6.055-13.974-2.795-20.029-4.192-13.042-3.261-17.7-16.769-19.098-26.084-0.932-4.658-4.658-6.521-6.055-6.056-6.055-19.563-15.371-37.263-22.824-55.429-1.863-4.658-1.397-9.316-1.397-14.44 2.329 0.932 4.658 0.466 4.192-2.794-2.329-15.371-7.918-27.016-13.974-38.195 3.261-15.837 3.726-34.469 11.179-48.443 6.521-12.576 18.632-19.098 27.016-29.811 2.795-3.726 2.795-8.85 5.59-12.11 9.316-9.316 18.632-19.098 28.879-27.482 4.658-3.726 10.247 0 17.234-1.397 2.329-8.384 11.645-15.837 20.495-13.508 3.726 0.932 11.179-8.85 13.508-9.782 3.726-1.397 1.863 3.726 1.863 6.987 8.85-6.987 20.961-10.713 32.14-14.906" fill="white" fill-rule="nonzero" stroke="none" stroke-width="1" stroke-linecap="butt" stroke-linejoin="miter" stroke-miterlimit="10" stroke-dasharray="" stroke-dashoffset="0" font-family="none" font-weight="none" font-size="none" text-anchor="none" style="mix-blend-mode: normal"></path></g><g transform="matrix(1,0,0,1,64,122.87071330288029)"><svg viewBox="0 0 192 114.25857339423943" height="114.25857339423943" width="192"><g><svg viewBox="0 0 192 114.25857339423943" height="114.25857339423943" width="192"><g><svg viewBox="0 0 192 114.25857339423943" height="114.25857339423943" width="192"><g transform="matrix(1,0,0,1,0,68.2260340069888)"><svg viewBox="0 0 192 46.03253938725064" height="46.03253938725064" width="192"><g id="SvgjsG2239"><svg viewBox="0 0 192 46.03253938725064" height="46.03253938725064" width="192" id="SvgjsSvg2238"><g><svg viewBox="0 0 192 31.58537714021286" height="31.58537714021286" width="192"><g transform="matrix(1,0,0,1,0,0)"><svg width="192" viewBox="2.5999999046325684 -35 216.07998657226562 35.54999923706055" height="31.58537714021286" data-palette-color="url(#3dbeadc1-82bd-423c-9d8c-e81318987caf)"></svg></g></svg></g><g transform="matrix(1,0,0,1,0,36.19444171402128)"><svg viewBox="0 0 192 9.838097673229353" height="9.838097673229353" width="192"><g transform="matrix(1,0,0,1,0,0)"><svg width="192" viewBox="-1.2000000476837158 -38.75 977.6500244140625 50.099998474121094" height="9.838097673229353" data-palette-color="url(#03eb45fd-7d38-4199-a950-371eafd3f87b)"></svg></g></svg></g></svg></g></svg></g><g transform="matrix(1,0,0,1,64.19151528340981,0)"><svg viewBox="0 0 63.61696943318038 63.61696943318038" height="63.61696943318038" width="63.61696943318038"><g><svg xmlns="http://www.w3.org/2000/svg" xmlns:xlink="http://www.w3.org/1999/xlink" version="1.1" x="0" y="0" viewBox="0 0 100 100" style="enable-background:new 0 0 100 100;" xml:space="preserve" height="63.61696943318038" width="63.61696943318038" class="icon-icon-0" data-fill-palette-color="accent" id="SvgjsSvg2237"></svg></g></svg></g><g></g></svg></g></svg></g></svg></g></svg></g><defs><mask></mask></defs><mask><g id="SvgjsG2236"><svg viewBox="0 0 320 360" height="360" width="320"><g><svg></svg></g><g><svg viewBox="0 0 320 360" height="360" width="320"><g></g><g transform="matrix(1,0,0,1,64,122.87071330288029)"><svg viewBox="0 0 192 114.25857339423943" height="114.25857339423943" width="192"><g><svg viewBox="0 0 192 114.25857339423943" height="114.25857339423943" width="192"><g><svg viewBox="0 0 192 114.25857339423943" height="114.25857339423943" width="192"><g transform="matrix(1,0,0,1,0,68.2260340069888)"><svg viewBox="0 0 192 46.03253938725064" height="46.03253938725064" width="192"><g id="SvgjsG2235"><svg viewBox="0 0 192 46.03253938725064" height="46.03253938725064" width="192" id="SvgjsSvg2234"><g><svg viewBox="0 0 192 31.58537714021286" height="31.58537714021286" width="192"><g transform="matrix(1,0,0,1,0,0)"><svg width="192" viewBox="2.5999999046325684 -35 216.07998657226562 35.54999923706055" height="31.58537714021286" data-palette-color="url(#3dbeadc1-82bd-423c-9d8c-e81318987caf)"></svg></g></svg></g><g transform="matrix(1,0,0,1,0,36.19444171402128)"><svg viewBox="0 0 192 9.838097673229353" height="9.838097673229353" width="192"><g transform="matrix(1,0,0,1,0,0)"><svg width="192" viewBox="-1.2000000476837158 -38.75 977.6500244140625 50.099998474121094" height="9.838097673229353" data-palette-color="url(#03eb45fd-7d38-4199-a950-371eafd3f87b)"></svg></g></svg></g></svg></g></svg></g><g transform="matrix(1,0,0,1,64.19151528340981,0)"><svg viewBox="0 0 63.61696943318038 63.61696943318038" height="63.61696943318038" width="63.61696943318038"><g><svg xmlns="http://www.w3.org/2000/svg" xmlns:xlink="http://www.w3.org/1999/xlink" version="1.1" x="0" y="0" viewBox="0 0 100 100" style="enable-background:new 0 0 100 100;" xml:space="preserve" height="63.61696943318038" width="63.61696943318038" class="icon-icon-0" data-fill-palette-color="accent" id="SvgjsSvg2232"></svg></g></svg></g><g></g></svg></g></svg></g></svg></g></svg></g><defs><mask></mask></defs></svg></g></mask><mask><g id="SvgjsG2231"><svg viewBox="0 0 320 360" height="360" width="320"><g><svg></svg></g><g><svg viewBox="0 0 320 360" height="360" width="320"><g></g><g transform="matrix(1,0,0,1,64,122.87071330288029)"><svg viewBox="0 0 192 114.25857339423943" height="114.25857339423943" width="192"><g><svg viewBox="0 0 192 114.25857339423943" height="114.25857339423943" width="192"><g><svg viewBox="0 0 192 114.25857339423943" height="114.25857339423943" width="192"><g transform="matrix(1,0,0,1,0,68.2260340069888)"><svg viewBox="0 0 192 46.03253938725064" height="46.03253938725064" width="192"><g id="SvgjsG2230"><svg viewBox="0 0 192 46.03253938725064" height="46.03253938725064" width="192" id="SvgjsSvg2229"><g><svg viewBox="0 0 192 31.58537714021286" height="31.58537714021286" width="192"><g transform="matrix(1,0,0,1,0,0)"><svg width="192" viewBox="2.5999999046325684 -35 216.07998657226562 35.54999923706055" height="31.58537714021286" data-palette-color="url(#3dbeadc1-82bd-423c-9d8c-e81318987caf)"></svg></g></svg></g><g transform="matrix(1,0,0,1,0,36.19444171402128)"><svg viewBox="0 0 192 9.838097673229353" height="9.838097673229353" width="192"><g transform="matrix(1,0,0,1,0,0)"><svg width="192" viewBox="-1.2000000476837158 -38.75 977.6500244140625 50.099998474121094" height="9.838097673229353" data-palette-color="url(#03eb45fd-7d38-4199-a950-371eafd3f87b)"></svg></g></svg></g></svg></g></svg></g><g transform="matrix(1,0,0,1,64.19151528340981,0)"><svg viewBox="0 0 63.61696943318038 63.61696943318038" height="63.61696943318038" width="63.61696943318038"><g><svg xmlns="http://www.w3.org/2000/svg" xmlns:xlink="http://www.w3.org/1999/xlink" version="1.1" x="0" y="0" viewBox="0 0 100 100" style="enable-background:new 0 0 100 100;" xml:space="preserve" height="63.61696943318038" width="63.61696943318038" class="icon-icon-0" data-fill-palette-color="accent" id="SvgjsSvg2227"></svg></g></svg></g><g></g></svg></g></svg></g></svg></g></svg></g><defs><mask></mask></defs><mask><g id="SvgjsG2226"><svg viewBox="0 0 320 360" height="360" width="320"><g><svg></svg></g><g><svg viewBox="0 0 320 360" height="360" width="320"><g></g><g transform="matrix(1,0,0,1,64,122.87071330288029)"><svg viewBox="0 0 192 114.25857339423943" height="114.25857339423943" width="192"><g><svg viewBox="0 0 192 114.25857339423943" height="114.25857339423943" width="192"><g><svg viewBox="0 0 192 114.25857339423943" height="114.25857339423943" width="192"><g transform="matrix(1,0,0,1,0,68.2260340069888)"><svg viewBox="0 0 192 46.03253938725064" height="46.03253938725064" width="192"><g id="SvgjsG2225"><svg viewBox="0 0 192 46.03253938725064" height="46.03253938725064" width="192" id="SvgjsSvg2224"><g><svg viewBox="0 0 192 31.58537714021286" height="31.58537714021286" width="192"><g transform="matrix(1,0,0,1,0,0)"><svg width="192" viewBox="2.5999999046325684 -35 216.07998657226562 35.54999923706055" height="31.58537714021286" data-palette-color="url(#3dbeadc1-82bd-423c-9d8c-e81318987caf)"></svg></g></svg></g><g transform="matrix(1,0,0,1,0,36.19444171402128)"><svg viewBox="0 0 192 9.838097673229353" height="9.838097673229353" width="192"><g transform="matrix(1,0,0,1,0,0)"><svg width="192" viewBox="-1.2000000476837158 -38.75 977.6500244140625 50.099998474121094" height="9.838097673229353" data-palette-color="url(#03eb45fd-7d38-4199-a950-371eafd3f87b)"></svg></g></svg></g></svg></g></svg></g><g transform="matrix(1,0,0,1,64.19151528340981,0)"><svg viewBox="0 0 63.61696943318038 63.61696943318038" height="63.61696943318038" width="63.61696943318038"><g><svg xmlns="http://www.w3.org/2000/svg" xmlns:xlink="http://www.w3.org/1999/xlink" version="1.1" x="0" y="0" viewBox="0 0 100 100" style="enable-background:new 0 0 100 100;" xml:space="preserve" height="63.61696943318038" width="63.61696943318038" class="icon-icon-0" data-fill-palette-color="accent" id="SvgjsSvg2223"></svg></g></svg></g><g></g></svg></g></svg></g></svg></g></svg></g><defs><mask></mask></defs></svg></g></mask></svg></g></mask><mask><g id="SvgjsG2222"><svg viewBox="0 0 320 360" height="360" width="320"><g><svg></svg></g><g><svg viewBox="0 0 320 360" height="360" width="320"><g></g><g transform="matrix(1,0,0,1,64,122.87071330288029)"><svg viewBox="0 0 192 114.25857339423943" height="114.25857339423943" width="192"><g><svg viewBox="0 0 192 114.25857339423943" height="114.25857339423943" width="192"><g><svg viewBox="0 0 192 114.25857339423943" height="114.25857339423943" width="192"><g transform="matrix(1,0,0,1,0,68.2260340069888)"><svg viewBox="0 0 192 46.03253938725064" height="46.03253938725064" width="192"><g id="SvgjsG2221"><svg viewBox="0 0 192 46.03253938725064" height="46.03253938725064" width="192" id="SvgjsSvg2220"><g><svg viewBox="0 0 192 31.58537714021286" height="31.58537714021286" width="192"><g transform="matrix(1,0,0,1,0,0)"><svg width="192" viewBox="2.5999999046325684 -35 216.07998657226562 35.54999923706055" height="31.58537714021286" data-palette-color="url(#3dbeadc1-82bd-423c-9d8c-e81318987caf)"></svg></g></svg></g><g transform="matrix(1,0,0,1,0,36.19444171402128)"><svg viewBox="0 0 192 9.838097673229353" height="9.838097673229353" width="192"><g transform="matrix(1,0,0,1,0,0)"><svg width="192" viewBox="-1.2000000476837158 -38.75 977.6500244140625 50.099998474121094" height="9.838097673229353" data-palette-color="url(#03eb45fd-7d38-4199-a950-371eafd3f87b)"></svg></g></svg></g></svg></g></svg></g><g transform="matrix(1,0,0,1,64.19151528340981,0)"><svg viewBox="0 0 63.61696943318038 63.61696943318038" height="63.61696943318038" width="63.61696943318038"><g><svg xmlns="http://www.w3.org/2000/svg" xmlns:xlink="http://www.w3.org/1999/xlink" version="1.1" x="0" y="0" viewBox="0 0 100 100" style="enable-background:new 0 0 100 100;" xml:space="preserve" height="63.61696943318038" width="63.61696943318038" class="icon-icon-0" data-fill-palette-color="accent" id="SvgjsSvg2219"></svg></g></svg></g><g></g></svg></g></svg></g></svg></g></svg></g><defs><mask></mask></defs><mask><g id="SvgjsG2218"><svg viewBox="0 0 320 360" height="360" width="320"><g><svg></svg></g><g><svg viewBox="0 0 320 360" height="360" width="320"><g></g><g transform="matrix(1,0,0,1,64,122.87071330288029)"><svg viewBox="0 0 192 114.25857339423943" height="114.25857339423943" width="192"><g><svg viewBox="0 0 192 114.25857339423943" height="114.25857339423943" width="192"><g><svg viewBox="0 0 192 114.25857339423943" height="114.25857339423943" width="192"><g transform="matrix(1,0,0,1,0,68.2260340069888)"><svg viewBox="0 0 192 46.03253938725064" height="46.03253938725064" width="192"><g id="SvgjsG2217"><svg viewBox="0 0 192 46.03253938725064" height="46.03253938725064" width="192" id="SvgjsSvg2216"><g><svg viewBox="0 0 192 31.58537714021286" height="31.58537714021286" width="192"><g transform="matrix(1,0,0,1,0,0)"><svg width="192" viewBox="2.5999999046325684 -35 216.07998657226562 35.54999923706055" height="31.58537714021286" data-palette-color="url(#3dbeadc1-82bd-423c-9d8c-e81318987caf)"></svg></g></svg></g><g transform="matrix(1,0,0,1,0,36.19444171402128)"><svg viewBox="0 0 192 9.838097673229353" height="9.838097673229353" width="192"><g transform="matrix(1,0,0,1,0,0)"><svg width="192" viewBox="-1.2000000476837158 -38.75 977.6500244140625 50.099998474121094" height="9.838097673229353" data-palette-color="url(#03eb45fd-7d38-4199-a950-371eafd3f87b)"></svg></g></svg></g></svg></g></svg></g><g transform="matrix(1,0,0,1,64.19151528340981,0)"><svg viewBox="0 0 63.61696943318038 63.61696943318038" height="63.61696943318038" width="63.61696943318038"><g><svg xmlns="http://www.w3.org/2000/svg" xmlns:xlink="http://www.w3.org/1999/xlink" version="1.1" x="0" y="0" viewBox="0 0 100 100" style="enable-background:new 0 0 100 100;" xml:space="preserve" height="63.61696943318038" width="63.61696943318038" class="icon-icon-0" data-fill-palette-color="accent" id="SvgjsSvg2215"></svg></g></svg></g><g></g></svg></g></svg></g></svg></g></svg></g><defs><mask></mask></defs></svg></g></mask><mask><g id="SvgjsG2214"><svg viewBox="0 0 320 360" height="360" width="320"><g><svg></svg></g><g><svg viewBox="0 0 320 360" height="360" width="320"><g></g><g transform="matrix(1,0,0,1,64,122.87071330288029)"><svg viewBox="0 0 192 114.25857339423943" height="114.25857339423943" width="192"><g><svg viewBox="0 0 192 114.25857339423943" height="114.25857339423943" width="192"><g><svg viewBox="0 0 192 114.25857339423943" height="114.25857339423943" width="192"><g transform="matrix(1,0,0,1,0,68.2260340069888)"><svg viewBox="0 0 192 46.03253938725064" height="46.03253938725064" width="192"><g id="SvgjsG2213"><svg viewBox="0 0 192 46.03253938725064" height="46.03253938725064" width="192" id="SvgjsSvg2212"><g><svg viewBox="0 0 192 31.58537714021286" height="31.58537714021286" width="192"><g transform="matrix(1,0,0,1,0,0)"><svg width="192" viewBox="2.5999999046325684 -35 216.07998657226562 35.54999923706055" height="31.58537714021286" data-palette-color="url(#3dbeadc1-82bd-423c-9d8c-e81318987caf)"></svg></g></svg></g><g transform="matrix(1,0,0,1,0,36.19444171402128)"><svg viewBox="0 0 192 9.838097673229353" height="9.838097673229353" width="192"><g transform="matrix(1,0,0,1,0,0)"><svg width="192" viewBox="-1.2000000476837158 -38.75 977.6500244140625 50.099998474121094" height="9.838097673229353" data-palette-color="url(#03eb45fd-7d38-4199-a950-371eafd3f87b)"></svg></g></svg></g></svg></g></svg></g><g transform="matrix(1,0,0,1,64.19151528340981,0)"><svg viewBox="0 0 63.61696943318038 63.61696943318038" height="63.61696943318038" width="63.61696943318038"><g><svg xmlns="http://www.w3.org/2000/svg" xmlns:xlink="http://www.w3.org/1999/xlink" version="1.1" x="0" y="0" viewBox="0 0 100 100" style="enable-background:new 0 0 100 100;" xml:space="preserve" height="63.61696943318038" width="63.61696943318038" class="icon-icon-0" data-fill-palette-color="accent" id="SvgjsSvg2211"></svg></g></svg></g><g></g></svg></g></svg></g></svg></g></svg></g><defs><mask></mask></defs><mask><g id="SvgjsG2210"><svg viewBox="0 0 320 360" height="360" width="320"><g><svg></svg></g><g><svg viewBox="0 0 320 360" height="360" width="320"><g></g><g transform="matrix(1,0,0,1,64,122.87071330288029)"><svg viewBox="0 0 192 114.25857339423943" height="114.25857339423943" width="192"><g><svg viewBox="0 0 192 114.25857339423943" height="114.25857339423943" width="192"><g><svg viewBox="0 0 192 114.25857339423943" height="114.25857339423943" width="192"><g transform="matrix(1,0,0,1,0,68.2260340069888)"><svg viewBox="0 0 192 46.03253938725064" height="46.03253938725064" width="192"><g id="SvgjsG2209"><svg viewBox="0 0 192 46.03253938725064" height="46.03253938725064" width="192" id="SvgjsSvg2208"><g><svg viewBox="0 0 192 31.58537714021286" height="31.58537714021286" width="192"><g transform="matrix(1,0,0,1,0,0)"><svg width="192" viewBox="2.5999999046325684 -35 216.07998657226562 35.54999923706055" height="31.58537714021286" data-palette-color="url(#3dbeadc1-82bd-423c-9d8c-e81318987caf)"></svg></g></svg></g><g transform="matrix(1,0,0,1,0,36.19444171402128)"><svg viewBox="0 0 192 9.838097673229353" height="9.838097673229353" width="192"><g transform="matrix(1,0,0,1,0,0)"><svg width="192" viewBox="-1.2000000476837158 -38.75 977.6500244140625 50.099998474121094" height="9.838097673229353" data-palette-color="url(#03eb45fd-7d38-4199-a950-371eafd3f87b)"></svg></g></svg></g></svg></g></svg></g><g transform="matrix(1,0,0,1,64.19151528340981,0)"><svg viewBox="0 0 63.61696943318038 63.61696943318038" height="63.61696943318038" width="63.61696943318038"><g><svg xmlns="http://www.w3.org/2000/svg" xmlns:xlink="http://www.w3.org/1999/xlink" version="1.1" x="0" y="0" viewBox="0 0 100 100" style="enable-background:new 0 0 100 100;" xml:space="preserve" height="63.61696943318038" width="63.61696943318038" class="icon-icon-0" data-fill-palette-color="accent" id="SvgjsSvg2207"></svg></g></svg></g><g></g></svg></g></svg></g></svg></g></svg></g><defs><mask></mask></defs></svg></g></mask></svg></g></mask></svg></g></mask></svg></g></mask><linearGradient x1="0" x2="1" y1="0.578" y2="0.595" id="38f1104d-04e1-4cd9-b312-e8587df20cd4"><stop stop-color="#6ee2f5" offset="0"></stop><stop stop-color="#6454f0" offset="1"></stop></linearGradient></svg><rect width="320" height="360" fill="none" stroke="none" visibility="hidden"></rect></g></svg></g></svg>